<svg width="179" height="179" viewBox="0 0 179 179" fill="none" xmlns="http://www.w3.org/2000/svg">
<circle cx="89.5" cy="89.5" r="81" fill="#1A5050" stroke="#333333" stroke-width="17"/>
<path d="M55 86C53.3431 86 52 87.3431 52 89C52 90.6569 53.3431 92 55 92V86ZM125.121 91.1213C126.293 89.9497 126.293 88.0503 125.121 86.8787L106.029 67.7868C104.858 66.6152 102.958 66.6152 101.787 67.7868C100.615 68.9584 100.615 70.8579 101.787 72.0294L118.757 89L101.787 105.971C100.615 107.142 100.615 109.042 101.787 110.213C102.958 111.385 104.858 111.385 106.029 110.213L125.121 91.1213ZM55 92H123V86H55V92Z" fill="#00FF00"/>
</svg>
