<svg width="90" height="81" viewBox="0 0 90 81" fill="none" xmlns="http://www.w3.org/2000/svg">
<path d="M77.8286 60.8639H32.0294C31.7955 60.8638 31.5679 60.7886 31.3801 60.6495C31.1922 60.5104 31.0539 60.3147 30.9857 60.0912L15.7694 10.0059C15.7349 9.8902 15.6641 9.78861 15.5674 9.71615C15.4707 9.64369 15.3532 9.60418 15.2324 9.60347H1.09017C0.801035 9.60347 0.52376 9.4887 0.319308 9.2844C0.114855 9.08011 0 8.80303 0 8.51411C0.000474269 8.22551 0.115518 7.94889 0.31992 7.74498C0.524321 7.54107 0.801345 7.42654 1.09017 7.42654H15.2324C15.8222 7.42376 16.3972 7.61183 16.8712 7.96263C17.3452 8.31342 17.6928 8.80811 17.8621 9.37272L32.8421 58.6817H77.0231L87.1427 24.9796C87.1689 24.8949 87.1746 24.8052 87.1593 24.7178C87.1441 24.6304 87.1083 24.5479 87.055 24.477C87.0026 24.4053 86.9339 24.3471 86.8545 24.3073C86.7751 24.2675 86.6874 24.2472 86.5986 24.248H82.8088C82.5197 24.248 82.2424 24.1333 82.0379 23.929C81.8335 23.7247 81.7186 23.4476 81.7186 23.1587C81.7191 22.8701 81.8341 22.5935 82.0385 22.3895C82.2429 22.1856 82.52 22.0711 82.8088 22.0711H86.5986C87.0271 22.069 87.45 22.168 87.8329 22.3601C88.2158 22.5522 88.548 22.832 88.8022 23.1766C89.06 23.5188 89.2331 23.9171 89.3074 24.339C89.3818 24.7608 89.3553 25.1943 89.2301 25.6039L78.8776 60.084C78.8107 60.3099 78.6722 60.508 78.4831 60.6486C78.294 60.7892 78.0644 60.8648 77.8286 60.8639Z" fill="white"/>
<path d="M25.5974 24.2516H21.0361C20.893 24.2516 20.7513 24.2234 20.6191 24.1687C20.487 24.1139 20.3669 24.0336 20.2658 23.9325C20.1647 23.8313 20.0846 23.7112 20.03 23.579C19.9754 23.4469 19.9474 23.3052 19.9476 23.1623C19.9476 22.8738 20.0623 22.5972 20.2664 22.3932C20.4705 22.1893 20.7474 22.0747 21.0361 22.0747H25.5974C25.886 22.0747 26.1629 22.1893 26.367 22.3932C26.5711 22.5972 26.6858 22.8738 26.6858 23.1623C26.686 23.3052 26.658 23.4469 26.6034 23.579C26.5488 23.7112 26.4687 23.8313 26.3676 23.9325C26.2665 24.0336 26.1464 24.1139 26.0143 24.1687C25.8821 24.2234 25.7405 24.2516 25.5974 24.2516Z" fill="white"/>
<path d="M34.7773 80.9999C32.7888 80.9956 30.883 80.2045 29.4769 78.7995C28.0708 77.3945 27.279 75.4901 27.2748 73.5032C27.2795 71.5166 28.0715 69.6127 29.4775 68.2081C30.8836 66.8035 32.7891 66.0126 34.7773 66.0083C36.7652 66.013 38.6702 66.8042 40.0759 68.2087C41.4815 69.6133 42.2733 71.5169 42.278 73.5032C42.2738 75.4898 41.4822 77.3939 40.0765 78.7988C38.6708 80.2038 36.7655 80.9952 34.7773 80.9999ZM34.7773 68.1852C33.3662 68.1866 32.0133 68.7474 31.0156 69.7444C30.0178 70.7414 29.4566 72.0932 29.4552 73.5032C29.4561 74.9133 30.0171 76.2654 31.015 77.2625C32.0129 78.2597 33.3661 78.8202 34.7773 78.8212C36.1884 78.8198 37.5413 78.259 38.539 77.262C39.5368 76.265 40.098 74.9132 40.0994 73.5032C40.0975 72.0934 39.5362 70.7418 38.5385 69.7449C37.5408 68.748 36.1883 68.1871 34.7773 68.1852Z" fill="white"/>
<path d="M74.1642 80.9999C72.176 80.9952 70.2706 80.2038 68.8649 78.7988C67.4593 77.3939 66.6677 75.4898 66.6634 73.5032C66.6682 71.5169 67.46 69.6133 68.8656 68.2087C70.2712 66.8042 72.1763 66.013 74.1642 66.0083C76.1523 66.0126 78.0579 66.8035 79.4639 68.2081C80.87 69.6127 81.662 71.5166 81.6667 73.5032C81.6625 75.4901 80.8706 77.3945 79.4646 78.7995C78.0585 80.2045 76.1526 80.9956 74.1642 80.9999ZM74.1642 68.1852C72.7532 68.1871 71.4006 68.748 70.403 69.7449C69.4053 70.7418 68.8439 72.0934 68.842 73.5032C68.8435 74.9132 69.4047 76.265 70.4024 77.262C71.4002 78.259 72.7531 78.8198 74.1642 78.8212C75.5756 78.8202 76.9289 78.2597 77.9271 77.2626C78.9252 76.2656 79.4867 74.9135 79.4881 73.5032C79.4862 72.0931 78.9246 70.7412 77.9265 69.7443C76.9285 68.7473 75.5754 68.1866 74.1642 68.1852Z" fill="white"/>
<path d="M61.7996 70.0171H47.1436C46.8545 70.0171 46.5772 69.9023 46.3727 69.698C46.1683 69.4937 46.0534 69.2166 46.0534 68.9277C46.0534 68.6388 46.1683 68.3617 46.3727 68.1574C46.5772 67.9532 46.8545 67.8384 47.1436 67.8384H61.7996C62.0884 67.8389 62.3653 67.9538 62.5693 68.1581C62.7734 68.3623 62.888 68.6391 62.888 68.9277C62.888 69.2163 62.7734 69.4932 62.5693 69.6974C62.3653 69.9016 62.0884 70.0166 61.7996 70.0171Z" fill="white"/>
<path d="M47.2475 60.8639C46.9586 60.8634 46.6818 60.7484 46.4777 60.5442C46.2737 60.3399 46.159 60.0631 46.159 59.7745V44.266C46.1586 44.1491 46.1118 44.0372 46.0289 43.9547C45.9461 43.8722 45.8338 43.8259 45.7169 43.8259H39.0432C38.914 43.8259 38.7902 43.8772 38.6989 43.9684C38.6076 44.0597 38.5563 44.1834 38.5563 44.3125V59.7745C38.5563 60.0634 38.4414 60.3405 38.237 60.5448C38.0325 60.7491 37.7552 60.8639 37.466 60.8639C37.1769 60.8639 36.8996 60.7491 36.6952 60.5448C36.4907 60.3405 36.3759 60.0634 36.3759 59.7745V44.3125C36.3763 43.6058 36.6575 42.9281 37.1576 42.4284C37.6577 41.9286 38.3359 41.6477 39.0432 41.6472H45.7169C46.4117 41.6482 47.0777 41.9244 47.569 42.4153C48.0603 42.9062 48.3367 43.5717 48.3377 44.266V59.7745C48.3377 60.0634 48.2228 60.3405 48.0183 60.5448C47.8139 60.7491 47.5366 60.8639 47.2475 60.8639Z" fill="white"/>
<path d="M71.7027 60.8639C71.4136 60.8639 71.1363 60.7492 70.9319 60.5449C70.7274 60.3406 70.6125 60.0635 70.6125 59.7746V50.2816C70.6125 50.1526 70.5612 50.0288 70.4699 49.9376C70.3786 49.8463 70.2548 49.7951 70.1256 49.7951H47.2475C46.9588 49.7951 46.682 49.6805 46.4778 49.4765C46.2737 49.2726 46.159 48.996 46.159 48.7075C46.159 48.4189 46.2737 48.1421 46.4777 47.9379C46.6818 47.7336 46.9586 47.6186 47.2475 47.6182H70.1256C70.8326 47.6186 71.5105 47.8993 72.0105 48.3987C72.5106 48.898 72.792 49.5752 72.7929 50.2816V59.7746C72.7929 60.0635 72.6781 60.3406 72.4736 60.5449C72.2692 60.7492 71.9919 60.8639 71.7027 60.8639Z" fill="white"/>
<path d="M60.5358 11.1508C60.3466 11.15 60.1608 11.1002 59.9967 11.0061C59.8325 10.912 59.6957 10.777 59.5995 10.6141C59.4517 10.3661 59.4083 10.0697 59.4788 9.78974C59.5492 9.5098 59.7278 9.26916 59.9755 9.12051C63.3375 7.13309 66.9301 5.56404 70.6734 4.44828C70.8103 4.40697 70.9541 4.39303 71.0964 4.40726C71.2387 4.4215 71.3769 4.46362 71.5029 4.53123C71.6289 4.59885 71.7404 4.69063 71.8309 4.80132C71.9214 4.912 71.9891 5.03942 72.0303 5.1763C72.072 5.31312 72.0862 5.45682 72.0722 5.59915C72.0582 5.74148 72.0163 5.87966 71.9488 6.00577C71.8813 6.13188 71.7895 6.24345 71.6788 6.33409C71.5681 6.42472 71.4405 6.49264 71.3035 6.53397C67.733 7.5977 64.3063 9.09409 61.0997 10.9898C60.9298 11.0936 60.7349 11.1493 60.5358 11.1508Z" fill="#00FF00"/>
<path d="M34.0415 38.2252C33.8576 38.2256 33.6765 38.1794 33.5152 38.0911C33.3728 38.0126 33.2496 37.9033 33.1549 37.7711C33.0601 37.639 32.996 37.4873 32.9674 37.3273L29.9779 20.4789C29.9421 20.2769 29.9642 20.0689 30.0418 19.8789C30.1195 19.689 30.2494 19.5249 30.4165 19.4057C30.5838 19.2864 30.7815 19.2168 30.9867 19.2047C31.1919 19.1927 31.3963 19.2388 31.5765 19.3377L35.3877 21.4377C36.6408 19.2912 40.1513 14.1145 47.2511 9.1722C47.3684 9.09037 47.5006 9.03244 47.6403 9.00172C47.78 8.97101 47.9244 8.96812 48.0652 8.9932C48.206 9.01829 48.3405 9.07086 48.461 9.14792C48.5815 9.22498 48.6856 9.32502 48.7673 9.4423C48.8493 9.55963 48.9073 9.69194 48.938 9.83167C48.9688 9.9714 48.9717 10.1158 48.9466 10.2567C48.9215 10.3975 48.8689 10.5321 48.7918 10.6526C48.7146 10.7731 48.6144 10.8773 48.497 10.9592C39.9419 16.9157 36.8377 23.3231 36.8091 23.3857C36.7451 23.5203 36.6544 23.6405 36.5423 23.739C36.4303 23.8374 36.2994 23.9119 36.1575 23.9581C36.0159 24.0035 35.8665 24.0196 35.7185 24.0054C35.5705 23.9913 35.4269 23.9472 35.2964 23.8758L32.5217 22.3464L34.8775 35.6226L47.3746 30.5336L44.3707 28.8772C44.1508 28.7562 43.9795 28.5629 43.8859 28.3301C43.7923 28.0974 43.782 27.8394 43.857 27.6C43.9465 27.3138 46.1358 20.5076 53.4772 13.9106C53.5835 13.815 53.7075 13.7412 53.8423 13.6934C53.9771 13.6457 54.12 13.625 54.2628 13.6325C54.4056 13.6399 54.5455 13.6755 54.6746 13.737C54.8036 13.7985 54.9193 13.8849 55.0149 13.9911C55.2084 14.2058 55.3086 14.4885 55.2935 14.777C55.2784 15.0654 55.1492 15.3361 54.9344 15.5294C49.5031 20.4092 47.0577 25.4821 46.2504 27.4265L50.425 29.7268C50.6048 29.8265 50.7528 29.975 50.852 30.155C50.9511 30.3351 50.9973 30.5395 50.9853 30.7446C50.9738 30.95 50.9041 31.1478 50.7843 31.3151C50.6644 31.4823 50.4995 31.612 50.3087 31.6891L34.4515 38.1465C34.3212 38.1989 34.182 38.2256 34.0415 38.2252Z" fill="#00FF00"/>
<path d="M54.2022 7.39416C53.9997 7.39457 53.8012 7.33853 53.6288 7.23236C53.4565 7.12618 53.3171 6.97408 53.2265 6.79314C53.0971 6.53503 53.0755 6.23614 53.1665 5.96211C53.2574 5.68809 53.4535 5.46135 53.7117 5.33171C58.4037 2.98128 63.6452 1.19431 69.286 0.0226765C69.4262 -0.0063707 69.5708 -0.00752263 69.7115 0.0192811C69.8522 0.0460849 69.9862 0.100327 70.1059 0.178898C70.2256 0.25747 70.3286 0.358833 70.4091 0.477203C70.4895 0.595573 70.5459 0.728631 70.5749 0.868767C70.6331 1.15149 70.5766 1.44574 70.4179 1.68688C70.2591 1.92802 70.0111 2.09634 69.7282 2.15489C64.2664 3.28717 59.2039 5.0169 54.6909 7.27968C54.5389 7.35463 54.3717 7.39379 54.2022 7.39416Z" fill="#00FF00"/>
<path d="M74.3647 38.2254C74.2235 38.2253 74.0837 38.198 73.953 38.1449L58.0958 31.6875C57.9054 31.6099 57.7407 31.48 57.621 31.3129C57.5012 31.1457 57.4313 30.9482 57.4191 30.743C57.4075 30.5377 57.4541 30.3333 57.5535 30.1532C57.653 29.9732 57.8012 29.8248 57.9812 29.7252L62.1577 27.4284C61.5884 26.0403 60.1778 23.0567 57.4496 19.7028C53.9999 15.4634 47.67 9.73939 37.1009 6.54645C36.8241 6.46295 36.5919 6.273 36.4552 6.01839C36.3186 5.76378 36.2888 5.46536 36.3723 5.18878C36.4559 4.9122 36.646 4.68012 36.9008 4.54359C37.1556 4.40706 37.4543 4.37726 37.7311 4.46075C48.8819 7.83077 55.5663 13.9108 59.2129 18.4131C63.187 23.3268 64.4956 27.4248 64.5493 27.5966C64.6249 27.836 64.615 28.0942 64.5213 28.3271C64.4276 28.56 64.2559 28.7532 64.0355 28.8737L61.0334 30.5301L73.5287 35.6192L75.8863 22.343L73.1116 23.8724C72.981 23.9442 72.8371 23.9886 72.6887 24.0027C72.5403 24.0169 72.3906 24.0005 72.2487 23.9547C72.1068 23.9087 71.9758 23.834 71.864 23.7352C71.7522 23.6364 71.662 23.5156 71.5989 23.3805C71.581 23.3429 69.6476 19.3361 64.6478 14.7408C60.031 10.5014 51.7766 4.87574 38.6655 2.15683C38.5255 2.12785 38.3926 2.07161 38.2743 1.99128C38.1561 1.91096 38.0548 1.80813 37.9763 1.6887C37.8979 1.56926 37.8437 1.43555 37.817 1.2952C37.7903 1.15485 37.7915 1.01061 37.8206 0.87072C37.8496 0.730584 37.9059 0.597526 37.9864 0.479156C38.0669 0.360786 38.1699 0.259423 38.2896 0.180851C38.4093 0.10228 38.5433 0.048038 38.684 0.0212342C38.8246 -0.0055695 38.9692 -0.00441758 39.1095 0.0246297C52.7701 2.85802 61.3897 8.76809 66.2159 13.2257C70.0111 16.7316 72.1091 19.8799 73.0185 21.4361L76.8262 19.3361C77.0063 19.2372 77.2107 19.1911 77.416 19.2031C77.6212 19.2151 77.8188 19.2848 77.9862 19.4041C78.1533 19.5233 78.2832 19.6873 78.3608 19.8773C78.4384 20.0672 78.4606 20.2753 78.4248 20.4773L75.4334 37.3256C75.4061 37.4847 75.3438 37.6358 75.2509 37.7679C75.158 37.9 75.0369 38.0098 74.8964 38.0894C74.7336 38.1793 74.5506 38.2261 74.3647 38.2254Z" fill="#00FF00"/>
</svg>
