<svg width="19" height="19" viewBox="0 0 19 19" fill="none" xmlns="http://www.w3.org/2000/svg">
<g clip-path="url(#clip0_135_366)">
<path d="M18.4149 18.9998C18.3381 19.0001 18.2619 18.985 18.1909 18.9556C18.1199 18.9262 18.0555 18.8829 18.0013 18.8284L0.171398 0.998534C0.11552 0.944565 0.0709673 0.880014 0.0403055 0.808636C0.0096438 0.737258 -0.00649738 0.660484 -0.00717242 0.582802C-0.00784745 0.505119 0.00694663 0.428082 0.0363633 0.356181C0.06578 0.284281 0.109239 0.218959 0.164171 0.164027C0.219103 0.109095 0.284411 0.0656503 0.356311 0.0362336C0.428211 0.00681693 0.505249 -0.00797715 0.582931 -0.00730212C0.660613 -0.00662708 0.737373 0.0095141 0.808751 0.0401758C0.88013 0.0708376 0.944694 0.115405 0.998663 0.171283L18.8315 18.0012C18.9133 18.083 18.969 18.1872 18.9916 18.3007C19.0141 18.4142 19.0025 18.5318 18.9583 18.6387C18.914 18.7456 18.839 18.8369 18.7428 18.9012C18.6466 18.9655 18.5336 18.9998 18.4179 18.9998H18.4149Z" fill="#FF005C"/>
<path d="M0.585059 18.9998C0.469366 18.9998 0.356271 18.9655 0.260084 18.9012C0.163896 18.8369 0.0889322 18.7456 0.0446616 18.6387C0.000391062 18.5318 -0.0112111 18.4142 0.0113528 18.3007C0.0339166 18.1872 0.0896172 18.083 0.171412 18.0012L18.0013 0.171283C18.0553 0.115405 18.1199 0.0708376 18.1912 0.0401758C18.2626 0.0095141 18.3394 -0.00662708 18.4171 -0.00730212C18.4947 -0.00797715 18.5718 0.00681693 18.6437 0.0362336C18.7156 0.0656503 18.7809 0.109095 18.8358 0.164027C18.8908 0.218959 18.9342 0.284281 18.9636 0.356181C18.993 0.428082 19.0078 0.505119 19.0072 0.582802C19.0065 0.660484 18.9903 0.737258 18.9597 0.808636C18.929 0.880014 18.8845 0.944565 18.8286 0.998534L0.998677 18.8284C0.944498 18.8829 0.880052 18.9262 0.809051 18.9556C0.73805 18.985 0.661916 19.0001 0.585059 18.9998Z" fill="#FF005C"/>
</g>
<defs>
<clipPath id="clip0_135_366">
<rect width="19" height="19" fill="white"/>
</clipPath>
</defs>
</svg>
