<svg width="105" height="75" viewBox="0 0 105 75" fill="none" xmlns="http://www.w3.org/2000/svg">
<path d="M102.905 74.0015H2.10646C1.94093 74.0015 1.77702 73.9689 1.62409 73.9055C1.47116 73.8422 1.33223 73.7493 1.21518 73.6321C1.09814 73.515 1.00525 73.376 0.941907 73.223C0.878561 73.07 0.845947 72.906 0.845947 72.7404V1.26111C0.845947 0.926646 0.978794 0.60588 1.21518 0.369377C1.45157 0.132873 1.77216 0 2.10646 0C2.44077 0 2.7614 0.132873 2.99779 0.369377C3.23418 0.60588 3.36698 0.926646 3.36698 1.26111V71.4835H102.897C103.231 71.4835 103.552 71.6163 103.788 71.8528C104.024 72.0893 104.157 72.4101 104.157 72.7446C104.157 73.079 104.024 73.3998 103.788 73.6363C103.552 73.8728 103.231 74.0057 102.897 74.0057L102.905 74.0015Z" fill="white"/>
<path d="M45.1496 39.6391C44.9067 39.6376 44.6695 39.5657 44.4666 39.432L28.1443 28.8503L11.8323 38.2061C11.6883 38.303 11.5259 38.3691 11.3552 38.4002C11.1845 38.4314 11.0092 38.4269 10.8403 38.3872C10.6714 38.3474 10.5125 38.2732 10.3736 38.1692C10.2347 38.0651 10.1188 37.9335 10.033 37.7826C9.94732 37.6317 9.8937 37.4646 9.87548 37.292C9.85727 37.1194 9.87485 36.9448 9.92718 36.7793C9.97951 36.6138 10.0654 36.4609 10.1795 36.3301C10.2937 36.1993 10.4336 36.0935 10.5905 36.0194L27.5627 26.2867C27.7638 26.1719 27.9926 26.1147 28.224 26.1213C28.4555 26.1278 28.6806 26.198 28.8749 26.324L44.8495 36.6779L61.0911 14.8208C61.2026 14.6708 61.346 14.5476 61.5109 14.4599C61.6759 14.3722 61.8583 14.3223 62.0449 14.3138C62.2315 14.3053 62.4176 14.3384 62.5899 14.4106C62.7621 14.4829 62.9161 14.5926 63.0408 14.7317L79.3321 32.9318L95.3274 23.253C95.613 23.0895 95.9511 23.0442 96.2696 23.1268C96.5882 23.2094 96.8618 23.4134 97.032 23.6951C97.2023 23.9768 97.2557 24.314 97.1808 24.6346C97.1059 24.9551 96.9087 25.2337 96.6313 25.4108L79.7419 35.6301C79.4905 35.7822 79.1938 35.8417 78.9031 35.7982C78.6125 35.7547 78.3462 35.611 78.1502 35.3919L62.1943 17.5625L46.1659 39.1297C46.0483 39.2884 45.895 39.4172 45.7185 39.5057C45.542 39.5942 45.3471 39.6399 45.1496 39.6391Z" fill="#FF00B8"/>
<path d="M11.2136 66.1925C10.9145 66.194 10.6249 66.0874 10.3981 65.8923C10.144 65.6755 9.98607 65.3668 9.95892 65.0338C9.93176 64.7009 10.0376 64.3707 10.2532 64.1156L27.2047 44.1718C27.3664 43.9814 27.581 43.8433 27.8213 43.7751C28.0616 43.7069 28.3167 43.7117 28.5542 43.7887L28.6349 43.8157C28.7253 43.8451 28.8121 43.8847 28.8936 43.9337L45.0379 53.6167L61.3147 40.8586C61.4932 40.7188 61.706 40.6298 61.9308 40.601C62.1556 40.5722 62.3839 40.6047 62.5918 40.695L62.6497 40.7198C62.7332 40.7556 62.8124 40.8008 62.8857 40.8544L79.3115 52.6579L95.6483 48.9968C95.8114 48.9559 95.981 48.948 96.1472 48.9737C96.3133 48.9994 96.4727 49.058 96.6158 49.1463C96.759 49.2345 96.883 49.3505 96.9807 49.4874C97.0784 49.6243 97.1477 49.7794 97.1845 49.9435C97.2214 50.1076 97.2251 50.2774 97.1954 50.443C97.1657 50.6086 97.1031 50.7665 97.0115 50.9075C96.9198 51.0486 96.8009 51.1698 96.6617 51.2641C96.5225 51.3585 96.3658 51.424 96.2009 51.4569L79.3115 55.2422C79.1377 55.2813 78.9577 55.2831 78.7832 55.2474C78.6088 55.2117 78.4438 55.1394 78.2994 55.0352L62.1344 43.4098L45.9094 56.1265C45.7087 56.2832 45.4653 56.3756 45.2111 56.3915C44.957 56.4074 44.704 56.3461 44.4853 56.2155L28.4342 46.5947L12.1636 65.7411C12.0471 65.8804 11.9019 65.9928 11.7379 66.0707C11.5739 66.1486 11.3951 66.1902 11.2136 66.1925Z" fill="#FF005C"/>
<path d="M20.3827 66.1922C20.0489 66.1922 19.7288 66.0596 19.4928 65.8234C19.2568 65.5873 19.1242 65.2671 19.1242 64.9332V63.6721C19.1173 63.5023 19.1448 63.3329 19.205 63.174C19.2652 63.0151 19.3569 62.8701 19.4745 62.7475C19.5921 62.6249 19.7333 62.5274 19.8895 62.4608C20.0458 62.3942 20.2138 62.3599 20.3837 62.3599C20.5535 62.3599 20.7216 62.3942 20.8778 62.4608C21.0341 62.5274 21.1753 62.6249 21.2929 62.7475C21.4105 62.8701 21.5022 63.0151 21.5624 63.174C21.6226 63.3329 21.6501 63.5023 21.6432 63.6721V64.9332C21.6426 65.2673 21.5096 65.5875 21.2732 65.8236C21.0369 66.0596 20.7166 66.1922 20.3827 66.1922Z" fill="white"/>
<path d="M28.3617 66.1923C28.0279 66.1923 27.7078 66.0597 27.4718 65.8235C27.2358 65.5874 27.1032 65.2672 27.1032 64.9333V53.5875C27.1164 53.2621 27.2549 52.9545 27.4897 52.7289C27.7244 52.5034 28.0372 52.3774 28.3627 52.3774C28.6882 52.3774 29.001 52.5034 29.2358 52.7289C29.4705 52.9545 29.609 53.2621 29.6221 53.5875V64.9333C29.6216 65.2674 29.4886 65.5876 29.2522 65.8237C29.0159 66.0597 28.6956 66.1923 28.3617 66.1923Z" fill="white"/>
<path d="M36.3406 66.1928C36.0069 66.1928 35.6868 66.0602 35.4508 65.824C35.2148 65.5879 35.0822 65.2677 35.0822 64.9338V57.3692C35.0954 57.0438 35.2338 56.7362 35.4686 56.5107C35.7033 56.2851 36.0162 56.1592 36.3417 56.1592C36.6671 56.1592 36.98 56.2851 37.2147 56.5107C37.4495 56.7362 37.5879 57.0438 37.6011 57.3692V64.9338C37.6011 65.0993 37.5685 65.2632 37.5052 65.4161C37.4418 65.5689 37.3489 65.7078 37.2318 65.8248C37.1148 65.9417 36.9757 66.0344 36.8228 66.0976C36.6699 66.1607 36.506 66.1931 36.3406 66.1928Z" fill="white"/>
<path d="M44.3197 66.1926C43.9859 66.1926 43.6659 66.0599 43.4299 65.8238C43.1939 65.5877 43.0613 65.2674 43.0613 64.9335V61.1502C43.0745 60.8248 43.2129 60.5172 43.4477 60.2917C43.6824 60.0661 43.9953 59.9402 44.3207 59.9402C44.6462 59.9402 44.959 60.0661 45.1938 60.2917C45.4285 60.5172 45.567 60.8248 45.5802 61.1502V64.9335C45.5802 65.099 45.5476 65.2629 45.4842 65.4158C45.4208 65.5687 45.3279 65.7076 45.2109 65.8245C45.0938 65.9415 44.9548 66.0342 44.8019 66.0973C44.649 66.1605 44.4851 66.1928 44.3197 66.1926Z" fill="white"/>
<path d="M52.3028 66.1926C52.1374 66.1928 51.9735 66.1605 51.8206 66.0973C51.6677 66.0342 51.5287 65.9415 51.4116 65.8245C51.2946 65.7076 51.2017 65.5687 51.1383 65.4158C51.0749 65.2629 51.0423 65.0991 51.0423 64.9335V58.6301C51.0354 58.4603 51.0629 58.2909 51.1231 58.132C51.1833 57.9731 51.275 57.828 51.3926 57.7055C51.5102 57.5829 51.6514 57.4854 51.8077 57.4188C51.9639 57.3522 52.132 57.3179 52.3018 57.3179C52.4716 57.3179 52.6397 57.3522 52.7959 57.4188C52.9522 57.4854 53.0934 57.5829 53.211 57.7055C53.3286 57.828 53.4203 57.9731 53.4805 58.132C53.5407 58.2909 53.5682 58.4603 53.5613 58.6301V64.9335C53.5613 65.2675 53.4287 65.5877 53.1927 65.8238C52.9567 66.0599 52.6366 66.1926 52.3028 66.1926Z" fill="white"/>
<path d="M60.2798 66.1925C60.1144 66.1928 59.9505 66.1605 59.7976 66.0973C59.6447 66.0342 59.5057 65.9414 59.3887 65.8245C59.2716 65.7076 59.1787 65.5687 59.1153 65.4158C59.052 65.2629 59.0193 65.099 59.0193 64.9335V51.0593C59.0124 50.8895 59.0399 50.7201 59.1001 50.5612C59.1603 50.4023 59.252 50.2572 59.3696 50.1347C59.4872 50.0121 59.6284 49.9146 59.7846 49.848C59.9409 49.7814 60.1089 49.7471 60.2788 49.7471C60.4486 49.7471 60.6167 49.7814 60.7729 49.848C60.9291 49.9146 61.0703 50.0121 61.188 50.1347C61.3056 50.2572 61.3973 50.4023 61.4575 50.5612C61.5177 50.7201 61.5451 50.8895 61.5383 51.0593V64.9335C61.5383 65.2674 61.4056 65.5877 61.1696 65.8238C60.9336 66.0599 60.6136 66.1925 60.2798 66.1925Z" fill="white"/>
<path d="M68.2588 66.1926C67.9249 66.1926 67.6046 66.06 67.3682 65.8239C67.1319 65.5879 66.9989 65.2677 66.9983 64.9335V54.8488C66.9914 54.6791 67.0189 54.5096 67.0791 54.3508C67.1393 54.1919 67.231 54.0468 67.3486 53.9242C67.4662 53.8017 67.6074 53.7042 67.7636 53.6376C67.9198 53.571 68.0879 53.5366 68.2578 53.5366C68.4276 53.5366 68.5957 53.571 68.7519 53.6376C68.9081 53.7042 69.0493 53.8017 69.1669 53.9242C69.2845 54.0468 69.3762 54.1919 69.4364 54.3508C69.4966 54.5096 69.5241 54.6791 69.5172 54.8488V64.9335C69.5172 65.2675 69.3846 65.5877 69.1486 65.8238C68.9126 66.0599 68.5926 66.1926 68.2588 66.1926Z" fill="white"/>
<path d="M76.2378 66.1927C75.9039 66.1927 75.5836 66.0601 75.3473 65.824C75.1109 65.588 74.9779 65.2677 74.9774 64.9336V59.8871C74.9705 59.7174 74.998 59.5479 75.0582 59.3891C75.1184 59.2302 75.21 59.0851 75.3277 58.9626C75.4453 58.84 75.5865 58.7425 75.7427 58.6759C75.8989 58.6093 76.067 58.575 76.2368 58.575C76.4067 58.575 76.5748 58.6093 76.731 58.6759C76.8872 58.7425 77.0284 58.84 77.146 58.9626C77.2636 59.0851 77.3553 59.2302 77.4155 59.3891C77.4757 59.5479 77.5032 59.7174 77.4963 59.8871V64.9295C77.4968 65.0952 77.4647 65.2593 77.4017 65.4126C77.3387 65.5658 77.2461 65.7051 77.1292 65.8224C77.0123 65.9398 76.8734 66.0329 76.7204 66.0964C76.5675 66.16 76.4035 66.1927 76.2378 66.1927Z" fill="white"/>
<path d="M84.2168 66.1924C83.8828 66.1924 83.5625 66.0598 83.3262 65.8237C83.0899 65.5877 82.9569 65.2674 82.9563 64.9333V59.8868C82.9563 59.5524 83.0891 59.2316 83.3255 58.9951C83.5619 58.7586 83.8825 58.6257 84.2168 58.6257C84.5511 58.6257 84.8717 58.7586 85.1081 58.9951C85.3445 59.2316 85.4773 59.5524 85.4773 59.8868V64.9292C85.4776 65.095 85.4452 65.2592 85.3819 65.4124C85.3187 65.5657 85.2259 65.7049 85.1088 65.8223C84.9917 65.9396 84.8527 66.0327 84.6997 66.0962C84.5466 66.1597 84.3825 66.1924 84.2168 66.1924Z" fill="white"/>
<path d="M92.1958 66.1926C91.8619 66.1926 91.5416 66.06 91.3052 65.824C91.0689 65.5879 90.9359 65.2677 90.9353 64.9336V57.369C90.9353 57.0345 91.0681 56.7138 91.3045 56.4773C91.5409 56.2408 91.8615 56.1079 92.1958 56.1079C92.5301 56.1079 92.8508 56.2408 93.0871 56.4773C93.3235 56.7138 93.4563 57.0345 93.4563 57.369V64.9336C93.4558 65.2677 93.3227 65.5879 93.0864 65.824C92.8501 66.06 92.5298 66.1926 92.1958 66.1926Z" fill="white"/>
</svg>
