<svg width="38" height="38" viewBox="0 0 38 38" fill="none" xmlns="http://www.w3.org/2000/svg">
<circle cx="19" cy="19" r="19" fill="#00FF00"/>
<path d="M16.2781 25C16.2314 25 16.1851 24.9891 16.1419 24.9678C16.0988 24.9465 16.0595 24.9153 16.0265 24.876L11.0998 19.0083C11.035 18.9284 10.9992 18.8215 11 18.7105C11.0008 18.5995 11.0382 18.4933 11.1041 18.4148C11.17 18.3364 11.2592 18.2918 11.3524 18.2909C11.4456 18.2899 11.5354 18.3326 11.6024 18.4097L16.2781 23.9794L25.3929 13.1241C25.4596 13.0446 25.55 13 25.6443 13C25.7387 13 25.8291 13.0446 25.8958 13.1241C25.9625 13.2035 26 13.3112 26 13.4236C26 13.5359 25.9625 13.6436 25.8958 13.7231L16.5294 24.8777C16.4626 24.9564 16.3722 25.0004 16.2781 25Z" fill="#1A5050" stroke="#1A5050" stroke-width="2"/>
</svg>
