<svg width="36" height="46" viewBox="0 0 36 46" fill="none" xmlns="http://www.w3.org/2000/svg">
<path d="M9.86832 45.9999C9.70848 45.9999 9.55517 45.9409 9.44205 45.8358C9.32893 45.7308 9.26526 45.5882 9.265 45.4396V18.7711H2.94237C2.36385 18.7711 1.79823 18.612 1.31657 18.3139C0.834906 18.0158 0.458674 17.592 0.235122 17.0956C0.0115695 16.5992 -0.0493427 16.0525 0.0600567 15.524C0.169456 14.9956 0.444276 14.509 0.850002 14.1253L14.5632 1.16204C14.9525 0.794027 15.4166 0.501758 15.9284 0.302255C16.4403 0.102751 16.9898 0 17.5447 0C18.0997 0 18.6492 0.102751 19.161 0.302255C19.6729 0.501758 20.137 0.794027 20.5262 1.16204L34.2395 14.1253C34.6452 14.509 34.92 14.9956 35.0294 15.524C35.1388 16.0525 35.0779 16.5992 34.8544 17.0956C34.6308 17.592 34.2546 18.0158 33.7729 18.3139C33.2913 18.612 32.7256 18.7711 32.1471 18.7711H25.8245V27.4287C25.8245 27.5775 25.7609 27.7203 25.6478 27.8255C25.5346 27.9308 25.3812 27.9899 25.2212 27.9899C25.0611 27.9899 24.9077 27.9308 24.7945 27.8255C24.6814 27.7203 24.6178 27.5775 24.6178 27.4287V18.4264C24.6181 18.2202 24.7063 18.0225 24.863 17.8767C25.0198 17.7309 25.2323 17.6488 25.454 17.6486H32.1471C32.488 17.6486 32.8212 17.5549 33.105 17.3793C33.3888 17.2037 33.6105 16.954 33.7423 16.6616C33.874 16.3692 33.91 16.047 33.8456 15.7357C33.7813 15.4243 33.6195 15.1376 33.3805 14.9114L19.6663 1.94909C19.3896 1.68674 19.0595 1.47833 18.6952 1.33607C18.3309 1.1938 17.9398 1.12052 17.5447 1.12052C17.1497 1.12052 16.7586 1.1938 16.3943 1.33607C16.03 1.47833 15.6998 1.68674 15.4232 1.94909L1.70994 14.9114C1.47058 15.1373 1.30837 15.424 1.24372 15.7355C1.17906 16.0469 1.21483 16.3691 1.34656 16.6617C1.47829 16.9543 1.70009 17.2041 1.98403 17.3797C2.26798 17.5553 2.6014 17.6488 2.94237 17.6486H9.63552C9.8572 17.6488 10.0697 17.7309 10.2265 17.8767C10.3832 18.0225 10.4714 18.2202 10.4717 18.4264V45.4396C10.4714 45.5882 10.4077 45.7308 10.2946 45.8358C10.1815 45.9409 10.0282 45.9999 9.86832 45.9999Z" fill="white"/>
</svg>
