<svg width="27" height="30" viewBox="0 0 27 30" fill="none" xmlns="http://www.w3.org/2000/svg">
<g clip-path="url(#clip0_130_219)">
<path d="M6.49862 29.9999C6.39335 29.9999 6.29239 29.9615 6.2179 29.8929C6.14341 29.8244 6.10148 29.7315 6.10131 29.6345V12.242H1.93762C1.55664 12.242 1.18417 12.1383 0.866974 11.9439C0.549782 11.7495 0.30202 11.473 0.154802 11.1493C0.00758508 10.8256 -0.0325278 10.469 0.0395156 10.1244C0.111559 9.77972 0.292538 9.46236 0.559724 9.21216L9.5904 0.757852C9.84673 0.517844 10.1523 0.327234 10.4894 0.197123C10.8265 0.0670118 11.1883 0 11.5538 0C11.9193 0 12.2811 0.0670118 12.6182 0.197123C12.9553 0.327234 13.2609 0.517844 13.5173 0.757852L22.5479 9.21216C22.8151 9.46236 22.9961 9.77972 23.0681 10.1244C23.1402 10.469 23.1001 10.8256 22.9528 11.1493C22.8056 11.473 22.5579 11.7495 22.2407 11.9439C21.9235 12.1383 21.551 12.242 21.17 12.242H17.0063V17.8883C17.0063 17.9853 16.9645 18.0784 16.89 18.1471C16.8155 18.2157 16.7144 18.2543 16.609 18.2543C16.5036 18.2543 16.4026 18.2157 16.3281 18.1471C16.2536 18.0784 16.2117 17.9853 16.2117 17.8883V12.0172C16.2119 11.8828 16.2699 11.7538 16.3732 11.6587C16.4764 11.5636 16.6164 11.5101 16.7623 11.51H21.17C21.3945 11.5099 21.6139 11.4488 21.8008 11.3343C21.9877 11.2198 22.1337 11.057 22.2205 10.8662C22.3073 10.6755 22.3309 10.4655 22.2886 10.2624C22.2462 10.0593 22.1396 9.87232 21.9823 9.72485L12.951 1.27115C12.7688 1.10005 12.5513 0.964131 12.3115 0.871348C12.0716 0.778564 11.814 0.730771 11.5538 0.730771C11.2936 0.730771 11.0361 0.778564 10.7962 0.871348C10.5563 0.964131 10.3389 1.10005 10.1567 1.27115L1.12603 9.72485C0.9684 9.87217 0.861577 10.0591 0.818999 10.2623C0.776422 10.4654 0.799978 10.6755 0.886725 10.8663C0.973472 11.0571 1.11953 11.22 1.30652 11.3346C1.49351 11.4491 1.71308 11.5101 1.93762 11.51H6.34531C6.49129 11.5101 6.63124 11.5636 6.73446 11.6587C6.83769 11.7538 6.89577 11.8828 6.89594 12.0172V29.6345C6.89577 29.7315 6.85382 29.8244 6.77933 29.8929C6.70484 29.9615 6.60388 29.9999 6.49862 29.9999Z" fill="#00FF00"/>
<path d="M13.1402 30.0001C13.0349 29.9999 12.934 29.9613 12.8596 29.8927C12.7853 29.824 12.7435 29.731 12.7435 29.6341V29.2999C12.7413 29.2506 12.75 29.2014 12.769 29.1553C12.7879 29.1092 12.8168 29.0671 12.8539 29.0315C12.891 28.9959 12.9355 28.9676 12.9847 28.9483C13.034 28.929 13.0869 28.919 13.1405 28.919C13.194 28.919 13.247 28.929 13.2962 28.9483C13.3455 28.9676 13.39 28.9959 13.4271 29.0315C13.4641 29.0671 13.493 29.1092 13.512 29.1553C13.531 29.2014 13.5397 29.2506 13.5375 29.2999V29.6347C13.5373 29.7316 13.4954 29.8246 13.4209 29.8931C13.3464 29.9616 13.2454 30.0001 13.1402 30.0001ZM13.1402 25.6443C13.0349 25.6442 12.934 25.6055 12.8596 25.5369C12.7853 25.4683 12.7435 25.3752 12.7435 25.2783V24.9435C12.7413 24.8942 12.75 24.845 12.769 24.7989C12.7879 24.7528 12.8168 24.7107 12.8539 24.6751C12.891 24.6396 12.9355 24.6113 12.9847 24.5919C13.034 24.5726 13.0869 24.5626 13.1405 24.5626C13.194 24.5626 13.247 24.5726 13.2962 24.5919C13.3455 24.6113 13.39 24.6396 13.4271 24.6751C13.4641 24.7107 13.493 24.7528 13.512 24.7989C13.531 24.845 13.5397 24.8942 13.5375 24.9435V25.2783C13.5375 25.3263 13.5272 25.3739 13.5072 25.4184C13.4873 25.4628 13.458 25.5031 13.4211 25.5371C13.3842 25.5711 13.3404 25.5981 13.2922 25.6165C13.244 25.6348 13.1923 25.6443 13.1402 25.6443ZM13.1402 21.2885C13.0349 21.2884 12.934 21.2497 12.8596 21.1811C12.7853 21.1125 12.7435 21.0195 12.7435 20.9225V20.5877C12.7413 20.5384 12.75 20.4893 12.769 20.4432C12.7879 20.397 12.8168 20.3549 12.8539 20.3194C12.891 20.2838 12.9355 20.2555 12.9847 20.2361C13.034 20.2168 13.0869 20.2068 13.1405 20.2068C13.194 20.2068 13.247 20.2168 13.2962 20.2361C13.3455 20.2555 13.39 20.2838 13.4271 20.3194C13.4641 20.3549 13.493 20.397 13.512 20.4432C13.531 20.4893 13.5397 20.5384 13.5375 20.5877V20.9225C13.5375 20.9706 13.5272 21.0182 13.5072 21.0626C13.4873 21.107 13.458 21.1473 13.4211 21.1813C13.3842 21.2153 13.3404 21.2423 13.2922 21.2607C13.244 21.2791 13.1923 21.2885 13.1402 21.2885ZM13.1402 16.9328C13.0349 16.9326 12.934 16.894 12.8596 16.8253C12.7853 16.7567 12.7435 16.6637 12.7435 16.5667V16.2319C12.7413 16.1827 12.75 16.1335 12.769 16.0874C12.7879 16.0413 12.8168 15.9992 12.8539 15.9636C12.891 15.928 12.9355 15.8997 12.9847 15.8804C13.034 15.861 13.0869 15.8511 13.1405 15.8511C13.194 15.8511 13.247 15.861 13.2962 15.8804C13.3455 15.8997 13.39 15.928 13.4271 15.9636C13.4641 15.9992 13.493 16.0413 13.512 16.0874C13.531 16.1335 13.5397 16.1827 13.5375 16.2319V16.5667C13.5375 16.6148 13.5272 16.6624 13.5072 16.7068C13.4873 16.7512 13.458 16.7916 13.4211 16.8256C13.3842 16.8595 13.3404 16.8865 13.2922 16.9049C13.244 16.9233 13.1923 16.9328 13.1402 16.9328Z" fill="#00FF00"/>
<path d="M10.1105 27.2066C10.0583 27.2066 10.0066 27.1971 9.95841 27.1787C9.91021 27.1603 9.8664 27.1333 9.8295 27.0994C9.79261 27.0654 9.76335 27.025 9.74338 26.9806C9.72341 26.9362 9.71313 26.8886 9.71313 26.8405V26.5051C9.71313 26.4081 9.75499 26.315 9.8295 26.2463C9.90402 26.1777 10.0051 26.1391 10.1105 26.1391C10.2158 26.1391 10.3169 26.1777 10.3914 26.2463C10.4659 26.315 10.5078 26.4081 10.5078 26.5051V26.8405C10.5078 26.9376 10.4659 27.0307 10.3914 27.0994C10.3169 27.168 10.2158 27.2066 10.1105 27.2066ZM10.1105 22.8502C10.0052 22.8502 9.90424 22.8117 9.82974 22.7432C9.75525 22.6747 9.71331 22.5817 9.71313 22.4848V22.1476C9.71313 22.0505 9.75499 21.9574 9.8295 21.8887C9.90402 21.8201 10.0051 21.7815 10.1105 21.7815C10.2158 21.7815 10.3169 21.8201 10.3914 21.8887C10.4659 21.9574 10.5078 22.0505 10.5078 22.1476V22.4829C10.5079 22.5311 10.4978 22.5788 10.4779 22.6234C10.458 22.6679 10.4288 22.7084 10.3919 22.7426C10.3549 22.7767 10.3111 22.8037 10.2628 22.8222C10.2145 22.8407 10.1627 22.8502 10.1105 22.8502ZM10.1105 18.4944C10.0052 18.4944 9.90424 18.4559 9.82974 18.3874C9.75525 18.3189 9.71331 18.226 9.71313 18.129V17.7936C9.71313 17.6965 9.75499 17.6034 9.8295 17.5348C9.90402 17.4661 10.0051 17.4276 10.1105 17.4276C10.2158 17.4276 10.3169 17.4661 10.3914 17.5348C10.4659 17.6034 10.5078 17.6965 10.5078 17.7936V18.129C10.5076 18.226 10.4657 18.3189 10.3912 18.3874C10.3167 18.4559 10.2157 18.4944 10.1105 18.4944ZM10.1105 14.1386C10.0052 14.1386 9.90424 14.1002 9.82974 14.0316C9.75525 13.9631 9.71331 13.8702 9.71313 13.7732V13.4378C9.71313 13.3407 9.75499 13.2476 9.8295 13.179C9.90402 13.1103 10.0051 13.0718 10.1105 13.0718C10.2158 13.0718 10.3169 13.1103 10.3914 13.179C10.4659 13.2476 10.5078 13.3407 10.5078 13.4378V13.7732C10.5076 13.8702 10.4657 13.9631 10.3912 14.0316C10.3167 14.1002 10.2157 14.1386 10.1105 14.1386Z" fill="#00FF00"/>
<path d="M16.6756 29.4687C16.5971 29.4687 16.5203 29.4472 16.455 29.407C16.3897 29.3668 16.3388 29.3097 16.3088 29.2429C16.2787 29.1761 16.2708 29.1026 16.286 29.0316C16.3012 28.9607 16.339 28.8954 16.3944 28.8442L25.7434 20.2318C25.8185 20.166 25.9186 20.1297 26.0223 20.1309C26.126 20.1321 26.2251 20.1705 26.2984 20.2381C26.3717 20.3056 26.4135 20.3969 26.4147 20.4924C26.416 20.588 26.3767 20.6802 26.3052 20.7493L16.9561 29.3599C16.9196 29.3944 16.876 29.4218 16.8278 29.4405C16.7796 29.4591 16.7279 29.4688 16.6756 29.4687Z" fill="#00FF00"/>
<path d="M17.9172 23.6813C17.4785 23.6813 17.0496 23.5615 16.6848 23.3369C16.32 23.1124 16.0357 22.7932 15.8678 22.4198C15.6999 22.0464 15.656 21.6355 15.7416 21.2391C15.8272 20.8427 16.0385 20.4786 16.3487 20.1928C16.6589 19.907 17.0541 19.7124 17.4844 19.6335C17.9147 19.5547 18.3607 19.5951 18.766 19.7498C19.1714 19.9045 19.5178 20.1664 19.7615 20.5025C20.0053 20.8385 20.1354 21.2336 20.1354 21.6378C20.1345 22.1795 19.9005 22.6989 19.4847 23.0819C19.0689 23.465 18.5052 23.6806 17.9172 23.6813ZM17.9172 20.3251C17.6353 20.325 17.3597 20.4019 17.1253 20.5461C16.8909 20.6903 16.7082 20.8953 16.6002 21.1352C16.4923 21.3751 16.464 21.639 16.519 21.8937C16.574 22.1484 16.7097 22.3824 16.909 22.566C17.1083 22.7496 17.3622 22.8746 17.6387 22.9253C17.9152 22.9759 18.2017 22.9499 18.4621 22.8504C18.7225 22.751 18.945 22.5827 19.1015 22.3667C19.258 22.1507 19.3415 21.8969 19.3414 21.6372C19.3409 21.2894 19.1907 20.9559 18.9237 20.7099C18.6567 20.464 18.2947 20.3256 17.9172 20.3251Z" fill="#00FF00"/>
<path d="M24.7812 30.0002C24.3425 30.0002 23.9136 29.8803 23.5488 29.6558C23.184 29.4312 22.8997 29.1121 22.7318 28.7387C22.564 28.3653 22.52 27.9544 22.6056 27.558C22.6912 27.1616 22.9025 26.7974 23.2127 26.5116C23.5229 26.2258 23.9181 26.0312 24.3484 25.9524C24.7787 25.8735 25.2247 25.914 25.6301 26.0686C26.0354 26.2233 26.3818 26.4852 26.6256 26.8213C26.8693 27.1574 26.9994 27.5525 26.9994 27.9566C26.9994 28.4986 26.7657 29.0184 26.3497 29.4016C25.9337 29.7849 25.3695 30.0002 24.7812 30.0002ZM24.7812 26.644C24.4993 26.6438 24.2238 26.7207 23.9894 26.8649C23.755 27.0091 23.5723 27.214 23.4643 27.4539C23.3564 27.6937 23.3281 27.9577 23.383 28.2124C23.4379 28.467 23.5735 28.701 23.7728 28.8846C23.972 29.0683 24.2259 29.1934 24.5023 29.2441C24.7787 29.2948 25.0653 29.2688 25.3257 29.1695C25.5861 29.0701 25.8086 28.9019 25.9652 28.686C26.1218 28.4701 26.2054 28.2163 26.2054 27.9566C26.2049 27.6087 26.0547 27.2752 25.7877 27.0292C25.5208 26.7831 25.1588 26.6446 24.7812 26.644Z" fill="#00FF00"/>
</g>
<defs>
<clipPath id="clip0_130_219">
<rect width="27" height="30" fill="white"/>
</clipPath>
</defs>
</svg>
