<svg width="39" height="41" viewBox="0 0 39 41" fill="none" xmlns="http://www.w3.org/2000/svg">
<g clip-path="url(#clip0_135_195)">
<path d="M31.8341 40.9998C31.7779 41.0001 31.722 40.991 31.6689 40.9727L25.475 38.837C25.4119 38.8154 25.3538 38.7816 25.304 38.7374C25.2542 38.6933 25.2138 38.6397 25.1851 38.5798C25.1564 38.5199 25.14 38.4549 25.1369 38.3886C25.1338 38.3223 25.144 38.2561 25.167 38.1938L27.4092 32.07C27.4306 32.0068 27.4645 31.9485 27.5089 31.8985C27.5534 31.8485 27.6074 31.8078 27.6679 31.7789C27.7283 31.75 27.794 31.7334 27.861 31.7301C27.928 31.7268 27.995 31.7369 28.058 31.7597C28.1211 31.7826 28.1789 31.8178 28.228 31.8632C28.2772 31.9086 28.3167 31.9633 28.3443 32.0241C28.3719 32.085 28.3869 32.1507 28.3886 32.2174C28.3903 32.2841 28.3785 32.3505 28.354 32.4126L26.2893 38.0582L31.9976 40.0239C32.1097 40.0628 32.2044 40.14 32.2649 40.2417C32.3253 40.3434 32.3476 40.4631 32.3278 40.5796C32.308 40.6961 32.2475 40.8018 32.1568 40.8781C32.0661 40.9544 31.9512 40.9964 31.8324 40.9965L31.8341 40.9998Z" fill="white"/>
<path d="M19.5289 39.8886C15.9205 39.8849 12.3829 38.8927 9.30404 37.021C6.1876 35.1177 3.67239 32.3807 2.04587 29.1229C0.419348 25.8651 -0.252851 22.2178 0.106104 18.5979C0.465059 14.978 1.84069 11.5317 4.07575 8.65267C6.31082 5.77366 9.31516 3.5782 12.7454 2.31719C12.8618 2.27448 12.9783 2.23505 13.0947 2.19233C13.157 2.17076 13.223 2.1616 13.2888 2.16538C13.3547 2.16917 13.4192 2.18581 13.4786 2.21437C13.538 2.24294 13.5911 2.28287 13.635 2.33187C13.6789 2.38087 13.7126 2.43798 13.7343 2.49995C13.756 2.56192 13.7652 2.62754 13.7614 2.69305C13.7576 2.75857 13.7409 2.82269 13.7122 2.88177C13.6834 2.94084 13.6433 2.99372 13.594 3.03737C13.5448 3.08102 13.4874 3.11458 13.4251 3.13616C13.3144 3.17476 13.2037 3.2183 13.0947 3.25526C9.84045 4.45045 6.99001 6.53238 4.86933 9.26301C2.74864 11.9936 1.44332 15.2627 1.10259 18.6965C0.761862 22.1303 1.39949 25.5901 2.94257 28.6804C4.48565 31.7707 6.8719 34.3667 9.82847 36.1716C13.294 38.2815 17.3594 39.2034 21.4019 38.7961C21.4675 38.7893 21.5339 38.7954 21.5971 38.8141C21.6603 38.8328 21.7193 38.8637 21.7705 38.905C21.8217 38.9464 21.8643 38.9973 21.8957 39.055C21.9271 39.1127 21.9468 39.176 21.9536 39.2413C21.9605 39.3065 21.9543 39.3725 21.9355 39.4354C21.9167 39.4983 21.8856 39.5569 21.8441 39.6078C21.8025 39.6588 21.7512 39.7011 21.6932 39.7324C21.6352 39.7636 21.5716 39.7832 21.506 39.79C20.8491 39.8568 20.1892 39.8897 19.5289 39.8886Z" fill="white"/>
<path d="M19.4802 36.8921C16.079 36.8962 12.7612 35.8453 9.98867 33.8857C9.93174 33.8492 9.8828 33.8017 9.84481 33.7459C9.80683 33.6902 9.78058 33.6273 9.76763 33.5612C9.75469 33.4951 9.75532 33.4271 9.76949 33.3612C9.78366 33.2954 9.81108 33.233 9.8501 33.178C9.88911 33.1229 9.93891 33.0763 9.99651 33.0409C10.0541 33.0055 10.1183 32.982 10.1853 32.9719C10.2522 32.9619 10.3205 32.9653 10.3861 32.9822C10.4517 32.999 10.5131 33.0289 10.5668 33.07C13.1698 34.9095 16.2846 35.8961 19.4777 35.8924C20.0153 35.8925 20.5526 35.8651 21.0873 35.8103C21.154 35.8015 21.2217 35.8062 21.2865 35.8239C21.3513 35.8416 21.4119 35.8721 21.4646 35.9135C21.5174 35.9549 21.5613 36.0064 21.5937 36.065C21.6261 36.1235 21.6464 36.188 21.6534 36.2545C21.6603 36.3209 21.6538 36.3882 21.6342 36.4521C21.6146 36.5161 21.5823 36.5755 21.5393 36.6268C21.4962 36.6781 21.4432 36.7203 21.3834 36.7509C21.3237 36.7816 21.2584 36.7999 21.1914 36.805C20.6229 36.8634 20.0517 36.8925 19.4802 36.8921Z" fill="white"/>
<path d="M25.7649 38.8282C25.6466 38.8275 25.5322 38.7853 25.442 38.7091C25.3519 38.6328 25.2916 38.5274 25.2719 38.4113C25.2521 38.2952 25.2742 38.1759 25.3342 38.0744C25.3941 37.9729 25.4882 37.8957 25.5997 37.8564C25.703 37.8203 25.8062 37.7833 25.9086 37.7455C29.1636 36.5487 32.0141 34.4647 34.1341 31.732C36.2541 28.9993 37.558 25.7282 37.8965 22.293C38.2351 18.8578 37.5946 15.3971 36.0484 12.307C34.5022 9.21687 32.1128 6.62202 29.1534 4.81932C25.6761 2.70933 21.5983 1.79361 17.5469 2.21293C17.4813 2.21989 17.4149 2.21391 17.3516 2.19536C17.2883 2.17681 17.2293 2.14606 17.178 2.10483C17.1266 2.06361 17.084 2.01272 17.0524 1.95509C17.0208 1.89746 17.001 1.8342 16.994 1.76894C16.987 1.70368 16.993 1.63767 17.0116 1.57472C17.0303 1.51176 17.0612 1.45307 17.1026 1.40201C17.1441 1.35094 17.1952 1.30849 17.2532 1.27709C17.3111 1.24568 17.3747 1.22595 17.4403 1.21899C21.7104 0.776892 26.0082 1.74227 29.6729 3.96667C32.7936 5.86702 35.3135 8.60281 36.9441 11.861C38.5748 15.1192 39.2503 18.7681 38.8935 22.3904C38.5367 26.0126 37.1619 29.4617 34.9265 32.3432C32.691 35.2246 29.6852 37.4219 26.253 38.6836C26.1448 38.723 26.0366 38.7657 25.9276 38.7994C25.8754 38.8182 25.8204 38.8279 25.7649 38.8282Z" fill="white"/>
<path d="M29.3904 8.51822C29.2774 8.51815 29.1677 8.48024 29.0791 8.4106C26.3551 6.27717 22.9902 5.11442 19.5231 5.10846C18.9714 5.10885 18.4201 5.1379 17.8714 5.19552C17.8058 5.20248 17.7395 5.19652 17.6762 5.17797C17.6129 5.15943 17.5539 5.12865 17.5025 5.08743C17.4512 5.0462 17.4085 4.99533 17.3769 4.9377C17.3454 4.88007 17.3255 4.81682 17.3185 4.75156C17.3115 4.68629 17.3175 4.62029 17.3362 4.55733C17.3548 4.49437 17.3858 4.43569 17.4272 4.38462C17.4687 4.33355 17.5198 4.2911 17.5777 4.2597C17.6357 4.2283 17.6993 4.20856 17.7649 4.2016C22.0413 3.74422 26.3275 4.97349 29.7026 7.62531C29.7846 7.6897 29.8444 7.77788 29.8737 7.87762C29.903 7.97736 29.9004 8.08371 29.8661 8.18188C29.8319 8.28006 29.7678 8.36519 29.6827 8.42546C29.5976 8.48574 29.4957 8.51816 29.3912 8.51822H29.3904Z" fill="white"/>
<path d="M11.1143 9.2557C11.0336 9.25546 10.9541 9.23591 10.8825 9.19872C10.8109 9.16154 10.7494 9.10779 10.7031 9.042C10.6568 8.97621 10.6271 8.90032 10.6164 8.82072C10.6058 8.74111 10.6145 8.66012 10.6419 8.58458L12.7065 2.93807L6.99744 0.972397C6.87149 0.928826 6.76812 0.837273 6.71004 0.717886C6.65196 0.598499 6.64394 0.461057 6.68774 0.335789C6.73155 0.210522 6.82359 0.107701 6.94362 0.0499333C7.06365 -0.00783465 7.20183 -0.0158182 7.32778 0.0277531L13.5217 2.16347C13.5846 2.18526 13.6426 2.2193 13.6923 2.2636C13.7419 2.3079 13.7822 2.36158 13.8108 2.42151C13.8394 2.48144 13.8557 2.54643 13.8588 2.61269C13.8619 2.67895 13.8517 2.74516 13.8289 2.80748L11.5867 8.93122C11.5507 9.02684 11.4862 9.10923 11.4017 9.16724C11.3172 9.22525 11.217 9.25612 11.1143 9.2557Z" fill="white"/>
<path d="M4.60164 26.7252C4.5001 26.7251 4.40098 26.6944 4.31727 26.6372C4.23357 26.58 4.16919 26.4991 4.13257 26.4049C4.10366 26.3309 4.07558 26.2562 4.04998 26.1822C4.00825 26.0589 4.01648 25.9243 4.07293 25.8069C4.12937 25.6895 4.22959 25.5986 4.35232 25.5535C4.47504 25.5084 4.61061 25.5126 4.73024 25.5653C4.84988 25.618 4.94417 25.7149 4.9931 25.8356C5.01898 25.9057 5.0465 25.9755 5.07568 26.0451C5.1236 26.1688 5.12015 26.3064 5.06611 26.4277C5.01206 26.5489 4.91184 26.6438 4.78746 26.6915C4.72814 26.7141 4.66514 26.7255 4.60164 26.7252Z" fill="white"/>
<path d="M8.02313 32.054C7.9558 32.0541 7.88914 32.0407 7.82714 32.0145C7.76513 31.9884 7.70906 31.9502 7.66225 31.902C7.55324 31.7903 7.44421 31.6753 7.33933 31.5603C7.24942 31.4623 7.20236 31.3327 7.20847 31.2002C7.21459 31.0676 7.27339 30.9429 7.37195 30.8535C7.47051 30.7641 7.60075 30.7172 7.73403 30.7233C7.8673 30.7294 7.99268 30.7879 8.08259 30.8859C8.18169 30.9935 8.28411 31.102 8.38652 31.2063C8.45508 31.2769 8.50122 31.3661 8.51921 31.4626C8.53719 31.5592 8.52622 31.6588 8.48765 31.7492C8.44909 31.8396 8.38465 31.9167 8.30234 31.9709C8.22003 32.0251 8.1235 32.054 8.02479 32.054H8.02313ZM6.04109 29.561C5.95657 29.561 5.87342 29.5398 5.79935 29.4993C5.72527 29.4588 5.6627 29.4003 5.61744 29.3293C5.53486 29.1971 5.45227 29.0624 5.36969 28.9301C5.30506 28.8165 5.28765 28.6822 5.32122 28.556C5.35478 28.4297 5.43663 28.3215 5.54929 28.2545C5.66195 28.1875 5.7965 28.167 5.92419 28.1973C6.05188 28.2276 6.1626 28.3063 6.2327 28.4167C6.30702 28.5408 6.38548 28.6631 6.46559 28.7921C6.51396 28.8677 6.54102 28.9548 6.54396 29.0444C6.54691 29.1339 6.52564 29.2226 6.48235 29.3012C6.43905 29.3797 6.37533 29.4453 6.29786 29.491C6.22039 29.5367 6.13199 29.5609 6.04192 29.561H6.04109Z" fill="white"/>
<path d="M10.2794 33.9778C10.1754 33.9782 10.074 33.946 9.98949 33.8858C9.92425 33.8406 9.859 33.7938 9.79458 33.747C9.69193 33.667 9.62455 33.5504 9.60667 33.4219C9.58878 33.2934 9.6218 33.163 9.69873 33.0582C9.77566 32.9535 9.89049 32.8825 10.019 32.8604C10.1475 32.8382 10.2797 32.8666 10.3876 32.9395L10.5701 33.0693C10.6572 33.1307 10.7224 33.218 10.7563 33.3187C10.7902 33.4193 10.791 33.5281 10.7587 33.6293C10.7263 33.7305 10.6624 33.8188 10.5762 33.8814C10.4901 33.9441 10.3861 33.9778 10.2794 33.9778Z" fill="white"/>
<path d="M34.4809 15.4936C34.3779 15.4935 34.2775 15.462 34.1931 15.4032C34.1087 15.3444 34.0446 15.2613 34.0094 15.165C33.983 15.0952 33.9565 15.0253 33.9268 14.9555C33.8832 14.8327 33.8894 14.6979 33.9442 14.5796C33.9989 14.4613 34.0979 14.3689 34.2201 14.3221C34.3422 14.2752 34.4779 14.2776 34.5983 14.3287C34.7188 14.3798 34.8144 14.4756 34.8649 14.5957C34.8939 14.6697 34.9219 14.7436 34.9475 14.8184C34.9756 14.8939 34.9849 14.975 34.9746 15.0549C34.9644 15.1348 34.9349 15.2111 34.8887 15.2772C34.8425 15.3433 34.7809 15.3974 34.7092 15.4348C34.6375 15.4721 34.5578 15.4918 34.4768 15.4919L34.4809 15.4936Z" fill="white"/>
<path d="M33.3248 13.0418C33.2364 13.0417 33.1496 13.0185 33.0731 12.9746C32.9965 12.9306 32.933 12.8674 32.8887 12.7913C32.8221 12.6758 32.7535 12.561 32.6831 12.4471C32.6468 12.3911 32.6222 12.3284 32.6107 12.2627C32.5991 12.197 32.6009 12.1297 32.6159 12.0648C32.6308 11.9998 32.6587 11.9385 32.6979 11.8844C32.737 11.8303 32.7866 11.7845 32.8438 11.7497C32.901 11.715 32.9646 11.6919 33.0309 11.6819C33.0971 11.672 33.1647 11.6753 33.2297 11.6916C33.2946 11.708 33.3557 11.7371 33.4091 11.7773C33.4626 11.8175 33.5075 11.8679 33.5411 11.9255C33.6155 12.0463 33.689 12.172 33.76 12.2919C33.804 12.3679 33.8272 12.4541 33.8271 12.5418C33.8271 12.6295 33.8039 12.7157 33.7598 12.7917C33.7157 12.8677 33.6523 12.9308 33.5759 12.9747C33.4996 13.0186 33.413 13.0417 33.3248 13.0418ZM31.6499 10.6811C31.577 10.6812 31.505 10.6656 31.4388 10.6352C31.3726 10.6049 31.3139 10.5605 31.2667 10.5053C31.1797 10.4034 31.0914 10.3029 31.0016 10.2038C30.9179 10.1044 30.8762 9.97645 30.8855 9.84705C30.8948 9.71765 30.9542 9.59689 31.0513 9.51025C31.1483 9.42361 31.2755 9.37787 31.4058 9.38267C31.5361 9.38747 31.6595 9.44244 31.7499 9.53598C31.8457 9.64195 31.939 9.74873 32.0323 9.85633C32.0936 9.9291 32.1328 10.0177 32.1453 10.1118C32.1578 10.2059 32.1432 10.3016 32.1031 10.3877C32.063 10.4738 31.9991 10.5468 31.9189 10.5982C31.8386 10.6496 31.7454 10.6772 31.6499 10.6778V10.6811Z" fill="white"/>
<path d="M29.5713 8.66187C29.456 8.66236 29.3441 8.62285 29.255 8.55014L29.079 8.4105C29.0252 8.37055 28.9799 8.32027 28.9459 8.26262C28.912 8.20498 28.8899 8.14115 28.8811 8.07489C28.8724 8.00864 28.877 7.94131 28.8948 7.87688C28.9127 7.81244 28.9433 7.75221 28.9849 7.69974C29.0265 7.64727 29.0782 7.60361 29.1371 7.57137C29.1959 7.53912 29.2607 7.51893 29.3275 7.51199C29.3943 7.50504 29.4619 7.51149 29.5262 7.53094C29.5904 7.55038 29.6501 7.58243 29.7018 7.62521L29.8884 7.7739C29.9688 7.83911 30.027 7.92747 30.0549 8.02686C30.0829 8.12625 30.0793 8.23181 30.0445 8.32906C30.0098 8.42631 29.9457 8.5105 29.8609 8.57008C29.7762 8.62966 29.675 8.66173 29.5713 8.66187Z" fill="white"/>
<path d="M12.8907 27.5753C12.7913 27.5753 12.6942 27.5459 12.6115 27.491C12.5289 27.4361 12.4644 27.3581 12.4264 27.2668C12.3883 27.1754 12.3782 27.075 12.3975 26.978C12.4168 26.881 12.4646 26.7919 12.5348 26.7219L25.7566 13.5708C25.8029 13.5225 25.8584 13.4838 25.9199 13.4572C25.9814 13.4305 26.0477 13.4164 26.1147 13.4156C26.1818 13.4148 26.2484 13.4273 26.3105 13.4524C26.3726 13.4776 26.4291 13.5149 26.4765 13.562C26.5239 13.6092 26.5614 13.6654 26.5867 13.7272C26.612 13.789 26.6246 13.8552 26.6238 13.9219C26.623 13.9886 26.6087 14.0545 26.5819 14.1156C26.5551 14.1768 26.5163 14.232 26.4677 14.278L13.2458 27.4291C13.1994 27.4758 13.1441 27.5127 13.0831 27.5379C13.0221 27.563 12.9567 27.5757 12.8907 27.5753Z" fill="white"/>
<path d="M14.6465 18.7379C14.0375 18.7379 13.4423 18.5583 12.936 18.2218C12.4297 17.8853 12.0351 17.407 11.8021 16.8475C11.569 16.2879 11.5081 15.6722 11.6269 15.0782C11.7457 14.4841 12.0389 13.9385 12.4695 13.5102C12.9 13.0819 13.4486 12.7903 14.0458 12.6721C14.6431 12.554 15.2621 12.6146 15.8247 12.8464C16.3872 13.0782 16.8681 13.4707 17.2064 13.9743C17.5447 14.4778 17.7252 15.0699 17.7252 15.6756C17.7244 16.4875 17.3997 17.2659 16.8225 17.84C16.2453 18.4141 15.4627 18.737 14.6465 18.7379ZM14.6465 13.6138C14.2363 13.6138 13.8353 13.7348 13.4943 13.9615C13.1533 14.1881 12.8875 14.5103 12.7305 14.8873C12.5736 15.2642 12.5326 15.679 12.6127 16.0791C12.6927 16.4792 12.8903 16.8467 13.1804 17.1352C13.4705 17.4236 13.8401 17.62 14.2424 17.6995C14.6447 17.779 15.0617 17.738 15.4406 17.5818C15.8195 17.4255 16.1434 17.161 16.3711 16.8217C16.5989 16.4824 16.7204 16.0836 16.7202 15.6756C16.7195 15.1288 16.5008 14.6046 16.112 14.2181C15.7233 13.8316 15.1962 13.6142 14.6465 13.6138Z" fill="white"/>
<path d="M24.3543 28.3868C23.7454 28.3868 23.1502 28.2072 22.6439 27.8707C22.1376 27.5342 21.743 27.056 21.5099 26.4964C21.2769 25.9368 21.2159 25.3211 21.3347 24.7271C21.4535 24.1331 21.7468 23.5874 22.1773 23.1591C22.6079 22.7309 23.1565 22.4392 23.7537 22.321C24.3509 22.2029 24.97 22.2635 25.5326 22.4953C26.0951 22.7271 26.576 23.1196 26.9143 23.6232C27.2526 24.1268 27.4331 24.7188 27.4331 25.3245C27.4323 26.1364 27.1076 26.9148 26.5304 27.4889C25.9532 28.063 25.1706 28.3859 24.3543 28.3868ZM24.3543 23.2619C23.9442 23.2617 23.5432 23.3826 23.202 23.6091C22.8609 23.8356 22.595 24.1577 22.4379 24.5346C22.2808 24.9115 22.2396 25.3262 22.3196 25.7264C22.3995 26.1265 22.5969 26.4942 22.8869 26.7827C23.1769 27.0712 23.5464 27.2678 23.9487 27.3474C24.3509 27.4271 24.7679 27.3863 25.1469 27.2302C25.5259 27.0741 25.8498 26.8097 26.0777 26.4705C26.3056 26.1313 26.4272 25.7325 26.4272 25.3245C26.4268 24.7777 26.2083 24.2535 25.8197 23.8668C25.431 23.4801 24.9041 23.2626 24.3543 23.2619Z" fill="white"/>
</g>
<defs>
<clipPath id="clip0_135_195">
<rect width="39" height="41" fill="white"/>
</clipPath>
</defs>
</svg>
