<svg width="25" height="26" viewBox="0 0 25 26" fill="none" xmlns="http://www.w3.org/2000/svg">
<g clip-path="url(#clip0_130_226)">
<path d="M20.4064 25.9998C20.3704 26 20.3346 25.9942 20.3006 25.9826L16.3301 24.6283C16.2897 24.6146 16.2524 24.5932 16.2205 24.5652C16.1886 24.5371 16.1627 24.5032 16.1443 24.4652C16.1259 24.4272 16.1154 24.386 16.1134 24.3439C16.1114 24.3019 16.1179 24.2599 16.1327 24.2204L17.57 20.3371C17.5837 20.2969 17.6054 20.26 17.6339 20.2282C17.6624 20.1965 17.697 20.1708 17.7358 20.1524C17.7745 20.1341 17.8166 20.1236 17.8596 20.1215C17.9025 20.1194 17.9455 20.1258 17.9859 20.1403C18.0263 20.1548 18.0634 20.1771 18.0949 20.2059C18.1264 20.2347 18.1517 20.2694 18.1694 20.3079C18.1871 20.3465 18.1967 20.3882 18.1978 20.4305C18.1989 20.4728 18.1913 20.5149 18.1756 20.5543L16.8521 24.1344L20.5113 25.381C20.5831 25.4057 20.6438 25.4546 20.6826 25.5191C20.7213 25.5836 20.7356 25.6595 20.7229 25.7333C20.7103 25.8072 20.6714 25.8743 20.6133 25.9227C20.5552 25.9711 20.4815 25.9977 20.4054 25.9977L20.4064 25.9998Z" fill="#00FF00"/>
<path d="M12.5185 25.2951C10.2055 25.2928 7.93774 24.6636 5.96414 23.4766C3.96642 22.2697 2.35411 20.534 1.31147 18.4681C0.268825 16.4021 -0.162072 14.0892 0.0680277 11.7937C0.298127 9.49819 1.17994 7.31269 2.61268 5.48698C4.04541 3.66127 5.97127 2.26902 8.17013 1.46936C8.24477 1.44227 8.31941 1.41726 8.39406 1.39018C8.434 1.3765 8.47627 1.37069 8.5185 1.37309C8.56072 1.37548 8.60204 1.38604 8.64012 1.40415C8.67819 1.42227 8.71227 1.44759 8.7404 1.47867C8.76853 1.50974 8.79016 1.54595 8.80406 1.58525C8.81797 1.62455 8.82387 1.66616 8.82143 1.70771C8.819 1.74925 8.80827 1.78992 8.78986 1.82738C8.77145 1.86484 8.74571 1.89837 8.71414 1.92605C8.68256 1.95373 8.64575 1.97502 8.60581 1.9887C8.53487 2.01318 8.46394 2.04079 8.39406 2.06423C6.30799 2.82216 4.48079 4.1424 3.12137 5.87402C1.76196 7.60563 0.925215 9.67872 0.7068 11.8562C0.488385 14.0337 0.897119 16.2278 1.88627 18.1875C2.87543 20.1472 4.40508 21.7934 6.30031 22.938C8.52183 24.276 11.1278 24.8606 13.7192 24.6023C13.7613 24.598 13.8038 24.6019 13.8443 24.6137C13.8848 24.6256 13.9226 24.6452 13.9554 24.6714C13.9883 24.6976 14.0156 24.7299 14.0357 24.7665C14.0558 24.8031 14.0685 24.8432 14.0728 24.8846C14.0772 24.926 14.0733 24.9678 14.0612 25.0077C14.0492 25.0476 14.0293 25.0848 14.0026 25.1171C13.976 25.1494 13.9431 25.1762 13.9059 25.196C13.8688 25.2159 13.828 25.2283 13.7859 25.2326C13.3648 25.275 12.9418 25.2959 12.5185 25.2951Z" fill="#00FF00"/>
<path d="M12.4873 23.3948C10.3071 23.3974 8.18024 22.7309 6.403 21.4883C6.3665 21.4652 6.33513 21.435 6.31078 21.3997C6.28643 21.3643 6.26961 21.3245 6.26131 21.2825C6.25301 21.2406 6.25341 21.1975 6.2625 21.1557C6.27158 21.1139 6.28916 21.0744 6.31417 21.0395C6.33918 21.0046 6.37111 20.975 6.40803 20.9526C6.44495 20.9301 6.48611 20.9152 6.52903 20.9089C6.57195 20.9025 6.61573 20.9047 6.65776 20.9153C6.69979 20.926 6.73918 20.945 6.77358 20.971C8.44216 22.1376 10.4388 22.7632 12.4857 22.7609C12.8303 22.7609 13.1747 22.7435 13.5175 22.7088C13.5602 22.7032 13.6036 22.7062 13.6452 22.7174C13.6867 22.7286 13.7256 22.748 13.7594 22.7742C13.7932 22.8005 13.8214 22.8331 13.8421 22.8703C13.8629 22.9074 13.8759 22.9483 13.8804 22.9904C13.8848 23.0326 13.8806 23.0752 13.8681 23.1158C13.8555 23.1563 13.8348 23.194 13.8072 23.2266C13.7796 23.2591 13.7456 23.2859 13.7073 23.3053C13.669 23.3247 13.6272 23.3364 13.5842 23.3396C13.2198 23.3766 12.8537 23.395 12.4873 23.3948Z" fill="#00FF00"/>
<path d="M16.5159 24.6227C16.4401 24.6223 16.3668 24.5955 16.309 24.5472C16.2512 24.4988 16.2125 24.4319 16.1999 24.3583C16.1872 24.2847 16.2014 24.2091 16.2398 24.1447C16.2783 24.0803 16.3386 24.0314 16.4101 24.0064C16.4762 23.9835 16.5424 23.9601 16.6081 23.9361C18.6946 23.1771 20.5219 21.8556 21.8808 20.1227C23.2398 18.3897 24.0756 16.3154 24.2926 14.137C24.5096 11.9585 24.0991 9.76398 23.1079 7.80438C22.1168 5.84478 20.5851 4.19927 18.688 3.0561C16.459 1.71805 13.845 1.13735 11.248 1.40326C11.2059 1.40767 11.1634 1.40388 11.1228 1.39212C11.0822 1.38036 11.0444 1.36086 11.0115 1.33471C10.9786 1.30857 10.9512 1.2763 10.931 1.23975C10.9108 1.20321 10.898 1.16309 10.8935 1.12171C10.8891 1.08032 10.8929 1.03846 10.9049 0.99854C10.9168 0.958616 10.9366 0.921402 10.9632 0.889018C10.9898 0.856633 11.0226 0.829715 11.0597 0.809801C11.0969 0.789887 11.1376 0.77737 11.1797 0.772958C13.9169 0.492604 16.6719 1.1048 19.021 2.51539C21.0215 3.72049 22.6368 5.45538 23.6821 7.52155C24.7274 9.58771 25.1605 11.9017 24.9317 14.1987C24.703 16.4957 23.8217 18.683 22.3887 20.5102C20.9558 22.3375 19.029 23.7309 16.8288 24.531C16.7595 24.556 16.6901 24.5831 16.6202 24.6044C16.5868 24.6163 16.5515 24.6225 16.5159 24.6227Z" fill="#00FF00"/>
<path d="M18.8401 5.40176C18.7676 5.40172 18.6973 5.37768 18.6405 5.33352C16.8943 3.98061 14.7374 3.24325 12.5149 3.23948C12.1612 3.23972 11.8078 3.25814 11.4561 3.29468C11.414 3.2991 11.3715 3.29532 11.3309 3.28356C11.2904 3.2718 11.2525 3.25228 11.2196 3.22614C11.1867 3.19999 11.1594 3.16774 11.1391 3.13119C11.1189 3.09464 11.1062 3.05453 11.1017 3.01315C11.0972 2.97176 11.101 2.9299 11.113 2.88998C11.1249 2.85005 11.1448 2.81284 11.1713 2.78046C11.1979 2.74807 11.2307 2.72115 11.2678 2.70124C11.305 2.68132 11.3457 2.66881 11.3878 2.6644C14.1291 2.37435 16.8767 3.15388 19.0402 4.83553C19.0927 4.87636 19.1311 4.93228 19.1499 4.99553C19.1686 5.05878 19.1669 5.12622 19.145 5.18848C19.1231 5.25073 19.0819 5.30472 19.0274 5.34294C18.9728 5.38116 18.9075 5.40172 18.8406 5.40176H18.8401Z" fill="#00FF00"/>
<path d="M7.12459 5.86947C7.07284 5.86932 7.02187 5.85692 6.976 5.83334C6.93013 5.80975 6.89069 5.77567 6.86101 5.73395C6.83133 5.69223 6.81226 5.64411 6.80543 5.59363C6.79861 5.54314 6.80421 5.49178 6.82177 5.44388L8.14525 1.86317L4.48557 0.616642C4.40484 0.589011 4.33858 0.530954 4.30135 0.455245C4.26412 0.379536 4.25897 0.292377 4.28705 0.212939C4.31513 0.133501 4.37414 0.0682984 4.45108 0.031665C4.52802 -0.00496832 4.6166 -0.0100311 4.69733 0.0175995L8.66776 1.37196C8.70814 1.38578 8.74533 1.40736 8.77715 1.43545C8.80897 1.46355 8.83479 1.49759 8.85312 1.53559C8.87144 1.5736 8.8819 1.61481 8.88389 1.65683C8.88588 1.69885 8.87935 1.74084 8.8647 1.78035L7.4274 5.6637C7.40435 5.72434 7.36296 5.77658 7.30882 5.81337C7.25468 5.85016 7.19039 5.86974 7.12459 5.86947Z" fill="#00FF00"/>
<path d="M2.94982 16.9478C2.88473 16.9477 2.82119 16.9282 2.76753 16.892C2.71387 16.8557 2.6726 16.8044 2.64913 16.7446C2.6306 16.6978 2.6126 16.6503 2.59619 16.6035C2.56944 16.5252 2.57471 16.4399 2.6109 16.3654C2.64708 16.291 2.71132 16.2333 2.78999 16.2047C2.86866 16.1761 2.95556 16.1788 3.03225 16.2122C3.10894 16.2456 3.16938 16.3071 3.20075 16.3836C3.21734 16.4281 3.23498 16.4724 3.25369 16.5165C3.2844 16.5949 3.28219 16.6822 3.24755 16.7591C3.21291 16.836 3.14866 16.8961 3.06893 16.9264C3.0309 16.9407 2.99052 16.9479 2.94982 16.9478Z" fill="#00FF00"/>
<path d="M5.14298 20.327C5.09982 20.327 5.05709 20.3185 5.01734 20.3019C4.97759 20.2854 4.94165 20.2611 4.91164 20.2306C4.84176 20.1598 4.77187 20.0868 4.70464 20.0139C4.64701 19.9517 4.61684 19.8696 4.62076 19.7855C4.62468 19.7015 4.66237 19.6224 4.72555 19.5657C4.78874 19.5089 4.87222 19.4793 4.95765 19.4831C5.04308 19.487 5.12346 19.5241 5.18109 19.5862C5.24462 19.6545 5.31028 19.7232 5.37592 19.7894C5.41987 19.8342 5.44945 19.8907 5.46098 19.9519C5.47251 20.0132 5.46547 20.0764 5.44075 20.1337C5.41603 20.191 5.37472 20.2399 5.32196 20.2742C5.2692 20.3086 5.20732 20.327 5.14404 20.327H5.14298ZM3.87244 18.746C3.81826 18.7461 3.76496 18.7326 3.71747 18.7069C3.66999 18.6812 3.62988 18.6442 3.60087 18.5991C3.54793 18.5153 3.49499 18.4298 3.44205 18.346C3.40062 18.2739 3.38947 18.1887 3.41098 18.1087C3.43249 18.0286 3.48496 17.96 3.55718 17.9175C3.6294 17.875 3.71565 17.862 3.7975 17.8812C3.87936 17.9004 3.95033 17.9504 3.99526 18.0204C4.04291 18.0991 4.0932 18.1767 4.14455 18.2584C4.17556 18.3064 4.1929 18.3616 4.19479 18.4184C4.19668 18.4752 4.18305 18.5314 4.1553 18.5813C4.12754 18.6311 4.0867 18.6727 4.03704 18.7016C3.98737 18.7306 3.93071 18.7459 3.87297 18.746H3.87244Z" fill="#00FF00"/>
<path d="M6.58929 21.5468C6.52267 21.547 6.45766 21.5266 6.40347 21.4884C6.36165 21.4598 6.31983 21.4301 6.27853 21.4004C6.21273 21.3497 6.16954 21.2757 6.15808 21.1942C6.14661 21.1128 6.16777 21.0301 6.21709 20.9636C6.2664 20.8972 6.34001 20.8522 6.4224 20.8382C6.50478 20.8241 6.58949 20.8421 6.65864 20.8883L6.77564 20.9707C6.83148 21.0096 6.87329 21.0649 6.89502 21.1288C6.91676 21.1926 6.91729 21.2616 6.89653 21.3258C6.87578 21.3899 6.83483 21.4459 6.77959 21.4856C6.72436 21.5254 6.65771 21.5468 6.58929 21.5468Z" fill="#00FF00"/>
<path d="M22.1031 9.82517C22.0371 9.82514 21.9727 9.80513 21.9186 9.76786C21.8646 9.73058 21.8234 9.67785 21.8009 9.61681C21.7839 9.57254 21.767 9.52826 21.7479 9.48398C21.72 9.40612 21.7239 9.32059 21.759 9.24558C21.7942 9.17057 21.8576 9.11198 21.9359 9.08227C22.0142 9.05256 22.1012 9.05408 22.1784 9.08648C22.2556 9.11889 22.3169 9.17964 22.3493 9.25583C22.3678 9.30271 22.3858 9.34959 22.4022 9.39699C22.4202 9.4449 22.4262 9.49636 22.4196 9.54702C22.4131 9.59768 22.3942 9.64603 22.3645 9.68797C22.3349 9.7299 22.2954 9.76418 22.2495 9.78789C22.2035 9.81159 22.1524 9.82402 22.1005 9.82413L22.1031 9.82517Z" fill="#00FF00"/>
<path d="M21.362 8.27038C21.3054 8.2703 21.2498 8.25559 21.2007 8.22771C21.1517 8.19983 21.1109 8.15976 21.0825 8.11151C21.0398 8.03824 20.9959 7.96547 20.9507 7.89324C20.9275 7.85769 20.9117 7.81793 20.9043 7.77629C20.8969 7.73465 20.898 7.69197 20.9076 7.65077C20.9172 7.60957 20.9351 7.57067 20.9602 7.53636C20.9853 7.50205 21.0171 7.47302 21.0537 7.45098C21.0904 7.42893 21.1312 7.41432 21.1736 7.40799C21.2161 7.40167 21.2595 7.40376 21.3011 7.41415C21.3427 7.42454 21.3819 7.44301 21.4161 7.46848C21.4504 7.49395 21.4792 7.52591 21.5007 7.56247C21.5484 7.63905 21.5955 7.71874 21.641 7.79479C21.6693 7.843 21.6841 7.89765 21.6841 7.95328C21.6841 8.00891 21.6692 8.06356 21.6409 8.11174C21.6126 8.15992 21.572 8.19994 21.523 8.22779C21.4741 8.25563 21.4186 8.27031 21.362 8.27038ZM20.2884 6.77329C20.2417 6.7734 20.1955 6.76348 20.1531 6.74423C20.1107 6.72498 20.073 6.69686 20.0428 6.66182C19.987 6.59723 19.9304 6.53351 19.8729 6.47065C19.8192 6.40759 19.7925 6.32647 19.7984 6.24441C19.8044 6.16235 19.8425 6.08578 19.9047 6.03083C19.9669 5.97589 20.0484 5.94688 20.1319 5.94992C20.2155 5.95297 20.2946 5.98783 20.3525 6.04715C20.4139 6.11435 20.4737 6.18206 20.5335 6.2503C20.5728 6.29644 20.5979 6.35264 20.606 6.41231C20.614 6.47197 20.6046 6.53265 20.5789 6.58727C20.5532 6.64189 20.5123 6.68818 20.4608 6.72075C20.4094 6.75333 20.3496 6.77082 20.2884 6.77121V6.77329Z" fill="#00FF00"/>
<path d="M18.9559 5.49312C18.882 5.49343 18.8103 5.46837 18.7531 5.42227L18.6404 5.33372C18.6058 5.30838 18.5768 5.27649 18.555 5.23994C18.5333 5.20338 18.5191 5.1629 18.5135 5.12089C18.5079 5.07888 18.5109 5.03618 18.5223 4.99532C18.5337 4.95446 18.5533 4.91626 18.58 4.88299C18.6067 4.84971 18.6399 4.82203 18.6776 4.80158C18.7153 4.78113 18.7568 4.76833 18.7996 4.76392C18.8425 4.75952 18.8858 4.76361 18.927 4.77594C18.9682 4.78827 19.0064 4.8086 19.0395 4.83573L19.1592 4.93001C19.2107 4.97137 19.248 5.0274 19.2659 5.09043C19.2839 5.15346 19.2815 5.2204 19.2593 5.28207C19.237 5.34374 19.1959 5.39713 19.1416 5.43491C19.0873 5.47269 19.0224 5.49303 18.9559 5.49312Z" fill="#00FF00"/>
<path d="M8.26331 17.4867C8.1996 17.4867 8.13732 17.4681 8.08434 17.4332C8.03137 17.3984 7.99006 17.3489 7.96564 17.291C7.94123 17.2331 7.93481 17.1694 7.94717 17.1079C7.95954 17.0464 7.99015 16.9899 8.03514 16.9455L16.5107 8.60578C16.5404 8.57514 16.5759 8.55064 16.6154 8.53374C16.6548 8.51683 16.6972 8.50786 16.7402 8.50735C16.7832 8.50683 16.8259 8.51478 16.8657 8.53074C16.9056 8.54669 16.9417 8.57032 16.9721 8.60024C17.0025 8.63015 17.0266 8.66576 17.0428 8.70495C17.059 8.74414 17.0671 8.78612 17.0666 8.82843C17.066 8.87073 17.0569 8.91251 17.0397 8.9513C17.0225 8.99009 16.9977 9.02509 16.9665 9.05427L8.49094 17.394C8.46118 17.4236 8.42573 17.447 8.38664 17.4629C8.34755 17.4789 8.30562 17.487 8.26331 17.4867Z" fill="#00FF00"/>
<path d="M9.38873 11.8824C8.99839 11.8824 8.61683 11.7685 8.29228 11.5551C7.96773 11.3418 7.71476 11.0385 7.56539 10.6836C7.41601 10.3288 7.37693 9.93832 7.45309 9.56162C7.52924 9.18492 7.7172 8.83891 7.9932 8.56732C8.26921 8.29574 8.62087 8.11078 9.0037 8.03585C9.38654 7.96092 9.78337 7.99938 10.144 8.14636C10.5046 8.29334 10.8128 8.54224 11.0297 8.86159C11.2466 9.18094 11.3623 9.5564 11.3623 9.94048C11.3617 10.4553 11.1536 10.949 10.7836 11.313C10.4136 11.6771 9.91198 11.8819 9.38873 11.8824ZM9.38873 8.633C9.12579 8.633 8.86878 8.70973 8.65016 8.85348C8.43155 8.99723 8.26116 9.20153 8.16057 9.44057C8.05997 9.6796 8.03367 9.94262 8.08501 10.1964C8.13634 10.4501 8.26301 10.6832 8.44896 10.8661C8.63492 11.049 8.87182 11.1735 9.12972 11.2239C9.38761 11.2743 9.65491 11.2484 9.8978 11.1493C10.1407 11.0502 10.3483 10.8825 10.4943 10.6673C10.6403 10.4521 10.7181 10.1992 10.718 9.94048C10.7176 9.59375 10.5774 9.26135 10.3282 9.01622C10.079 8.7711 9.7411 8.63327 9.38873 8.633Z" fill="#00FF00"/>
<path d="M15.6118 18.0016C15.2214 18.0016 14.8399 17.8877 14.5153 17.6743C14.1907 17.4609 13.9378 17.1576 13.7884 16.8028C13.639 16.4479 13.6 16.0575 13.6761 15.6808C13.7523 15.3041 13.9402 14.958 14.2162 14.6865C14.4922 14.4149 14.8439 14.2299 15.2267 14.155C15.6096 14.0801 16.0064 14.1185 16.367 14.2655C16.7276 14.4125 17.0359 14.6614 17.2527 14.9807C17.4696 15.3001 17.5853 15.6755 17.5853 16.0596C17.5848 16.5745 17.3767 17.0681 17.0067 17.4322C16.6367 17.7962 16.135 18.001 15.6118 18.0016ZM15.6118 14.7516C15.3488 14.7515 15.0918 14.8281 14.8731 14.9718C14.6544 15.1155 14.484 15.3197 14.3833 15.5587C14.2826 15.7977 14.2562 16.0607 14.3074 16.3145C14.3586 16.5682 14.4852 16.8013 14.6711 16.9843C14.857 17.1673 15.0938 17.2919 15.3517 17.3424C15.6096 17.393 15.8769 17.3671 16.1198 17.2681C16.3627 17.1691 16.5704 17.0015 16.7165 16.7864C16.8626 16.5712 16.9405 16.3183 16.9405 16.0596C16.9403 15.7129 16.8002 15.3804 16.5511 15.1352C16.3019 14.89 15.9641 14.752 15.6118 14.7516Z" fill="#00FF00"/>
</g>
<defs>
<clipPath id="clip0_130_226">
<rect width="25" height="26" fill="white"/>
</clipPath>
</defs>
</svg>
