<svg width="45" height="45" viewBox="0 0 45 45" fill="none" xmlns="http://www.w3.org/2000/svg">
<g clip-path="url(#clip0_135_172)">
<path d="M44.3355 45.0001C44.1592 45.0001 43.9902 44.9301 43.8656 44.8055C43.741 44.6809 43.671 44.5119 43.671 44.3356V42.8866H15.4561C15.3666 42.8902 15.2774 42.8757 15.1936 42.844C15.1099 42.8122 15.0335 42.7639 14.9689 42.7019C14.9043 42.6399 14.853 42.5655 14.8179 42.4831C14.7828 42.4008 14.7646 42.3121 14.7646 42.2226C14.7646 42.1331 14.7828 42.0445 14.8179 41.9621C14.853 41.8797 14.9043 41.8053 14.9689 41.7433C15.0335 41.6813 15.1099 41.633 15.1936 41.6012C15.2774 41.5695 15.3666 41.555 15.4561 41.5587H44.3355C44.5115 41.5587 44.6804 41.6285 44.805 41.7529C44.9296 41.8773 44.9997 42.046 45 42.2221V44.3356C45 44.5119 44.93 44.6809 44.8054 44.8055C44.6808 44.9301 44.5117 45.0001 44.3355 45.0001Z" fill="white"/>
<path d="M0.664496 45.0001C0.576865 45.0007 0.489992 44.9839 0.408865 44.9508C0.327739 44.9177 0.253976 44.8688 0.191808 44.8071C0.12964 44.7453 0.080291 44.6718 0.0466237 44.5909C0.0129564 44.51 -0.0043659 44.4233 -0.00436401 44.3356V42.2221C-0.00407493 42.046 0.0660477 41.8773 0.190636 41.7529C0.315224 41.6285 0.484078 41.5587 0.660128 41.5587H9.11215C9.20161 41.555 9.29088 41.5695 9.3746 41.6012C9.45832 41.633 9.53475 41.6813 9.59933 41.7433C9.66391 41.8053 9.71533 41.8797 9.75043 41.9621C9.78553 42.0445 9.8036 42.1331 9.8036 42.2226C9.8036 42.3121 9.78553 42.4008 9.75043 42.4831C9.71533 42.5655 9.66391 42.6399 9.59933 42.7019C9.53475 42.7639 9.45832 42.8122 9.3746 42.844C9.29088 42.8757 9.20161 42.8902 9.11215 42.8866H1.32355V44.3356C1.32356 44.5109 1.25429 44.6791 1.13084 44.8036C1.0074 44.9281 0.839788 44.9987 0.664496 45.0001Z" fill="white"/>
<path d="M41.5182 41.4779C41.4309 41.4779 41.3445 41.4607 41.2639 41.4273C41.1832 41.3939 41.11 41.345 41.0483 41.2833C40.9866 41.2216 40.9376 41.1483 40.9042 41.0677C40.8708 40.9871 40.8537 40.9006 40.8537 40.8134V38.6616H4.14199V40.8145C4.14199 40.9907 4.07199 41.1597 3.94737 41.2844C3.82275 41.409 3.65374 41.479 3.4775 41.479C3.30126 41.479 3.1322 41.409 3.00758 41.2844C2.88297 41.1597 2.81296 40.9907 2.81296 40.8145V37.996C2.81296 37.8198 2.88297 37.6508 3.00758 37.5262C3.1322 37.4016 3.30126 37.3315 3.4775 37.3315H41.5138C41.69 37.3315 41.859 37.4016 41.9837 37.5262C42.1083 37.6508 42.1783 37.8198 42.1783 37.996V40.8134C42.1783 40.9889 42.1089 41.1572 41.9852 41.2817C41.8615 41.4062 41.6936 41.4767 41.5182 41.4779Z" fill="white"/>
<path d="M11.2345 35.8432C11.1905 35.8431 11.1466 35.8387 11.1035 35.8301C10.9307 35.7954 10.7789 35.6934 10.6813 35.5467C10.5837 35.4 10.5483 35.2205 10.583 35.0477C10.5907 35.0106 11.3381 31.2527 11.3381 28.1353C11.3381 25.0005 10.5852 19.8306 10.5743 19.7793C10.5547 19.6904 10.5536 19.5984 10.5711 19.509C10.5886 19.4197 10.6243 19.3349 10.676 19.2599C10.7277 19.185 10.7943 19.1215 10.8716 19.0733C10.9489 19.0252 11.0353 18.9935 11.1254 18.9802C11.2155 18.967 11.3073 18.9724 11.3952 18.9961C11.4831 19.0198 11.5652 19.0614 11.6363 19.1183C11.7075 19.1751 11.7661 19.246 11.8087 19.3265C11.8512 19.407 11.8768 19.4954 11.8837 19.5862C11.9154 19.8044 12.6595 24.9023 12.6595 28.1353C12.6595 31.387 11.9099 35.1514 11.8782 35.3096C11.8479 35.4587 11.7675 35.5928 11.6504 35.6899C11.5333 35.7869 11.3865 35.841 11.2345 35.8432Z" fill="white"/>
<path d="M11.2345 20.3466H10.5296C10.3581 20.3396 10.196 20.2666 10.0772 20.1429C9.95835 20.0191 9.89199 19.8542 9.89199 19.6826C9.89199 19.511 9.95835 19.3461 10.0772 19.2223C10.196 19.0986 10.3581 19.0256 10.5296 19.0186H11.2345C11.4318 19.0181 11.621 18.9393 11.7604 18.7997C11.8999 18.66 11.9783 18.4708 11.9786 18.2734C11.9786 18.0972 12.0486 17.9281 12.1732 17.8035C12.2978 17.6789 12.4669 17.6089 12.6431 17.6089C12.8194 17.6089 12.9884 17.6789 13.113 17.8035C13.2376 17.9281 13.3076 18.0972 13.3076 18.2734C13.3076 18.8232 13.0892 19.3506 12.7004 19.7394C12.3116 20.1282 11.7843 20.3466 11.2345 20.3466Z" fill="white"/>
<path d="M12.6388 37.2519C12.5515 37.2519 12.4651 37.2347 12.3845 37.2013C12.3038 37.1679 12.2306 37.1189 12.1688 37.0572C12.1071 36.9955 12.0582 36.9223 12.0248 36.8416C11.9914 36.761 11.9742 36.6746 11.9742 36.5873C11.9739 36.3901 11.8955 36.201 11.756 36.0615C11.6165 35.922 11.4274 35.8435 11.2301 35.8432H10.5252C10.349 35.8432 10.18 35.7732 10.0553 35.6485C9.93072 35.5239 9.86071 35.3549 9.86071 35.1787C9.86071 35.0024 9.93072 34.8334 10.0553 34.7088C10.18 34.5842 10.349 34.5142 10.5252 34.5142H11.2344C11.7843 34.5142 12.3116 34.7326 12.7004 35.1214C13.0892 35.5102 13.3076 36.0375 13.3076 36.5873C13.3076 36.675 13.2903 36.7618 13.2566 36.8427C13.223 36.9236 13.1736 36.997 13.1115 37.0588C13.0493 37.1205 12.9755 37.1694 12.8944 37.2025C12.8133 37.2357 12.7264 37.2524 12.6388 37.2519Z" fill="white"/>
<path d="M5.59538 37.9556C5.50817 37.9558 5.42181 37.9387 5.34119 37.9055C5.26058 37.8722 5.18729 37.8233 5.12557 37.7617C5.06385 37.7001 5.01492 37.6269 4.98151 37.5464C4.9481 37.4658 4.93089 37.3794 4.93089 37.2922V36.5884C4.93093 36.1746 5.05484 35.7702 5.28663 35.4274C5.51843 35.0846 5.8475 34.819 6.23153 34.6648C6.0133 33.4252 5.57684 30.6275 5.57684 28.1364C5.57684 25.5275 6.06135 21.6986 6.2643 20.2092C5.87343 20.0586 5.53732 19.7932 5.30027 19.4479C5.06323 19.1025 4.93633 18.6935 4.93633 18.2746V17.5708C4.9327 17.4814 4.94722 17.3921 4.97895 17.3084C5.01068 17.2247 5.05898 17.1482 5.12099 17.0836C5.183 17.0191 5.25744 16.9677 5.33981 16.9326C5.42217 16.8975 5.51081 16.8794 5.60034 16.8794C5.68987 16.8794 5.77845 16.8975 5.86082 16.9326C5.94318 16.9677 6.01762 17.0191 6.07963 17.0836C6.14165 17.1482 6.18994 17.2247 6.22168 17.3084C6.25341 17.3921 6.26793 17.4814 6.2643 17.5708V18.2746C6.26459 18.4722 6.3432 18.6616 6.4829 18.8013C6.6226 18.941 6.81194 19.0196 7.00951 19.0199C7.10502 19.02 7.19939 19.0408 7.28613 19.0808C7.37288 19.1208 7.44998 19.179 7.51214 19.2515C7.5743 19.3241 7.6201 19.4091 7.64635 19.501C7.67259 19.5928 7.67865 19.6893 7.6642 19.7837C7.65656 19.835 6.90039 25.0048 6.90039 28.1397C6.90039 31.2571 7.64787 35.0139 7.65551 35.0521C7.67495 35.1488 7.67258 35.2486 7.64864 35.3443C7.6247 35.44 7.57978 35.5292 7.51709 35.6053C7.45441 35.6815 7.37554 35.7428 7.28624 35.7846C7.19694 35.8265 7.09946 35.848 7.00082 35.8475C6.80336 35.8475 6.61395 35.9259 6.47422 36.0655C6.33449 36.205 6.25585 36.3942 6.25556 36.5917V37.2966C6.25441 37.4712 6.18446 37.6384 6.06088 37.7617C5.9373 37.8851 5.77001 37.9548 5.59538 37.9556Z" fill="white"/>
<path d="M37.997 35.8432C37.9527 35.8431 37.9085 35.8387 37.865 35.8301C37.6924 35.7951 37.5407 35.6931 37.4431 35.5465C37.3456 35.3998 37.3101 35.2205 37.3445 35.0477C37.3522 35.0106 38.1007 31.2527 38.1007 28.1353C38.1007 25.0005 37.3467 19.8306 37.3369 19.7793C37.3173 19.6904 37.3162 19.5984 37.3337 19.509C37.3512 19.4197 37.3869 19.3349 37.4386 19.2599C37.4903 19.185 37.5569 19.1215 37.6342 19.0733C37.7115 19.0252 37.7979 18.9935 37.888 18.9802C37.978 18.967 38.0699 18.9724 38.1578 18.9961C38.2457 19.0198 38.3278 19.0614 38.3989 19.1183C38.47 19.1751 38.5287 19.246 38.5713 19.3265C38.6138 19.407 38.6394 19.4954 38.6463 19.5862C38.6779 19.8044 39.4221 24.9023 39.4221 28.1353C39.4221 31.387 38.6724 35.1514 38.6408 35.3096C38.6108 35.4588 38.5305 35.5932 38.4133 35.6904C38.2962 35.7875 38.1492 35.8414 37.997 35.8432Z" fill="white"/>
<path d="M37.9959 20.3466H37.2922C37.2027 20.3503 37.1134 20.3358 37.0297 20.3041C36.946 20.2723 36.8695 20.224 36.805 20.162C36.7404 20.1 36.689 20.0255 36.6539 19.9432C36.6188 19.8608 36.6007 19.7722 36.6007 19.6827C36.6007 19.5931 36.6188 19.5045 36.6539 19.4222C36.689 19.3398 36.7404 19.2654 36.805 19.2034C36.8695 19.1414 36.946 19.093 37.0297 19.0613C37.1134 19.0296 37.2027 19.0151 37.2922 19.0187H37.9959C38.1934 19.0181 38.3826 18.9394 38.5222 18.7998C38.6619 18.6602 38.7406 18.4709 38.7412 18.2735C38.7375 18.184 38.7521 18.0947 38.7838 18.011C38.8155 17.9273 38.8638 17.8509 38.9258 17.7863C38.9878 17.7217 39.0623 17.6703 39.1446 17.6352C39.227 17.6001 39.3156 17.582 39.4051 17.582C39.4947 17.582 39.5833 17.6001 39.6657 17.6352C39.748 17.6703 39.8225 17.7217 39.8845 17.7863C39.9465 17.8509 39.9948 17.9273 40.0265 18.011C40.0583 18.0947 40.0727 18.184 40.0691 18.2735C40.0691 18.8233 39.8507 19.3506 39.4619 19.7394C39.0731 20.1282 38.5457 20.3466 37.9959 20.3466Z" fill="white"/>
<path d="M39.4046 37.2519C39.2285 37.2516 39.0598 37.1814 38.9354 37.0568C38.811 36.9322 38.7412 36.7634 38.7412 36.5873C38.7406 36.39 38.6619 36.2009 38.5222 36.0614C38.3825 35.9219 38.1933 35.8435 37.9959 35.8432H37.2921C37.1159 35.8432 36.9469 35.7732 36.8223 35.6485C36.6977 35.5239 36.6277 35.3549 36.6277 35.1787C36.6277 35.0024 36.6977 34.8334 36.8223 34.7088C36.9469 34.5842 37.1159 34.5142 37.2921 34.5142H37.9959C38.5457 34.5142 39.0731 34.7326 39.4619 35.1214C39.8507 35.5102 40.0691 36.0375 40.0691 36.5873C40.0691 36.6746 40.0519 36.761 40.0185 36.8416C39.9851 36.9223 39.9362 36.9955 39.8745 37.0572C39.8128 37.1189 39.7395 37.1679 39.6589 37.2013C39.5783 37.2347 39.4919 37.2519 39.4046 37.2519Z" fill="white"/>
<path d="M32.3613 37.9556C32.1852 37.9556 32.0164 37.8857 31.8918 37.7613C31.7672 37.6369 31.697 37.4682 31.6967 37.2921V36.5884C31.6968 36.1744 31.8209 35.7699 32.0529 35.4271C32.2849 35.0842 32.6142 34.8187 32.9985 34.6647C32.7802 33.4251 32.3372 30.6274 32.3372 28.1363C32.3372 25.5274 32.8217 21.6986 33.0257 20.2092C32.6347 20.0588 32.2983 19.7934 32.0611 19.448C31.8238 19.1027 31.6968 18.6935 31.6967 18.2746V17.5708C31.6967 17.3945 31.7667 17.2255 31.8913 17.1009C32.016 16.9763 32.185 16.9062 32.3613 16.9062C32.5375 16.9062 32.7065 16.9763 32.8311 17.1009C32.9557 17.2255 33.0257 17.3945 33.0257 17.5708V18.2746C33.026 18.4719 33.1045 18.6612 33.244 18.8008C33.3834 18.9405 33.5725 19.0192 33.7699 19.0198C33.8655 19.0198 33.9599 19.0404 34.0468 19.0804C34.1336 19.1203 34.2107 19.1785 34.2729 19.2511C34.3351 19.3237 34.3809 19.4088 34.4071 19.5007C34.4333 19.5927 34.4392 19.6892 34.4246 19.7836C34.4169 19.8349 33.6608 25.0047 33.6608 28.1396C33.6608 31.257 34.4093 35.0138 34.417 35.052C34.4364 35.1487 34.4341 35.2486 34.4101 35.3442C34.3862 35.4399 34.3412 35.5291 34.2785 35.6053C34.2159 35.6814 34.137 35.7427 34.0477 35.7846C33.9584 35.8265 33.8609 35.8479 33.7623 35.8475C33.565 35.8477 33.3759 35.9262 33.2364 36.0657C33.0969 36.2052 33.0184 36.3944 33.0181 36.5916V37.2965C33.0167 37.4705 32.9471 37.637 32.8243 37.7602C32.7015 37.8834 32.5352 37.9536 32.3613 37.9556Z" fill="white"/>
<path d="M42.223 17.5295H2.77806C2.60201 17.5292 2.43327 17.459 2.30889 17.3345C2.18451 17.2099 2.11464 17.041 2.11464 16.865V12.6389C2.11453 12.525 2.14381 12.4129 2.19962 12.3135C2.25542 12.2141 2.33587 12.1308 2.43324 12.0716L22.1557 0.0962167C22.2598 0.0335866 22.3791 0.000488281 22.5005 0.000488281C22.622 0.000488281 22.7413 0.0335866 22.8454 0.0962167L42.5679 12.0716C42.6655 12.1306 42.7462 12.2138 42.8022 12.3132C42.8582 12.4127 42.8876 12.5248 42.8875 12.6389V16.865C42.8875 17.0412 42.8175 17.2102 42.6929 17.3348C42.5683 17.4595 42.3993 17.5295 42.223 17.5295ZM3.44255 16.2005H41.5596V13.0121L22.5005 1.44597L3.44255 13.0121V16.2005Z" fill="white"/>
<path d="M22.4995 10.4851C21.9503 10.4849 21.4135 10.3218 20.957 10.0166C20.5004 9.7113 20.1447 9.27752 19.9346 8.77007C19.7246 8.26263 19.6698 7.70431 19.777 7.1657C19.8843 6.62709 20.1489 6.13238 20.5373 5.74412C20.9257 5.35586 21.4205 5.09149 21.9592 4.98443C22.4978 4.87737 23.0561 4.93243 23.5635 5.14264C24.0709 5.35286 24.5045 5.70879 24.8096 6.16543C25.1147 6.62208 25.2775 7.15893 25.2775 7.70812C25.2767 8.44454 24.9836 9.15055 24.4628 9.67117C23.942 10.1918 23.2359 10.4845 22.4995 10.4851ZM22.4995 6.25909C22.2129 6.25909 21.9327 6.34407 21.6944 6.50329C21.4561 6.66251 21.2704 6.88882 21.1607 7.15359C21.051 7.41837 21.0224 7.70973 21.0783 7.99082C21.1342 8.2719 21.2722 8.5301 21.4748 8.73275C21.6775 8.9354 21.9357 9.07342 22.2168 9.12933C22.4979 9.18524 22.7892 9.15654 23.054 9.04687C23.3188 8.93719 23.545 8.75147 23.7043 8.51317C23.8635 8.27488 23.9485 7.99471 23.9485 7.70812C23.9488 7.51754 23.9115 7.32878 23.8389 7.1526C23.7662 6.97642 23.6595 6.81628 23.525 6.68132C23.3904 6.54636 23.2306 6.43921 23.0546 6.36602C22.8787 6.29282 22.6901 6.255 22.4995 6.25472V6.25909Z" fill="white"/>
<path d="M37.2921 14.0072H7.70788C7.61843 14.0108 7.52915 13.9963 7.44543 13.9646C7.36171 13.9329 7.28528 13.8845 7.2207 13.8225C7.15613 13.7605 7.1047 13.6861 7.06961 13.6037C7.03451 13.5214 7.01643 13.4327 7.01643 13.3432C7.01643 13.2537 7.03451 13.1651 7.06961 13.0827C7.1047 13.0004 7.15613 12.9259 7.2207 12.8639C7.28528 12.8019 7.36171 12.7536 7.44543 12.7219C7.52915 12.6901 7.61843 12.6756 7.70788 12.6793H37.2921C37.4636 12.6862 37.6257 12.7592 37.7445 12.883C37.8634 13.0067 37.9297 13.1716 37.9297 13.3432C37.9297 13.5148 37.8634 13.6797 37.7445 13.8035C37.6257 13.9272 37.4636 14.0002 37.2921 14.0072Z" fill="white"/>
</g>
<defs>
<clipPath id="clip0_135_172">
<rect width="45" height="45" fill="white"/>
</clipPath>
</defs>
</svg>
