<svg width="29" height="29" viewBox="0 0 29 29" fill="none" xmlns="http://www.w3.org/2000/svg">
<g clip-path="url(#clip0_130_203)">
<path d="M28.5718 28.9999C28.4582 28.9999 28.3493 28.9548 28.269 28.8745C28.1887 28.7942 28.1435 28.6853 28.1435 28.5717V27.6379H9.96062C9.90297 27.6402 9.84543 27.6309 9.79148 27.6104C9.73753 27.59 9.68827 27.5588 9.64666 27.5189C9.60504 27.4789 9.57193 27.4309 9.54932 27.3779C9.5267 27.3248 9.51501 27.2677 9.51501 27.21C9.51501 27.1523 9.5267 27.0952 9.54932 27.0421C9.57193 26.989 9.60504 26.9411 9.64666 26.9011C9.68827 26.8611 9.73753 26.83 9.79148 26.8095C9.84543 26.7891 9.90297 26.7798 9.96062 26.7821H28.5718C28.6852 26.7821 28.794 26.8271 28.8743 26.9073C28.9546 26.9874 28.9999 27.0962 29 27.2096V28.5717C29 28.6853 28.9549 28.7942 28.8746 28.8745C28.7943 28.9548 28.6854 28.9999 28.5718 28.9999Z" fill="#00FF00"/>
<path d="M0.428236 28.9999C0.371762 29.0003 0.315777 28.9895 0.263496 28.9681C0.211214 28.9468 0.163678 28.9153 0.123614 28.8755C0.0835503 28.8357 0.0517478 28.7884 0.0300511 28.7362C0.00835442 28.6841 -0.00280884 28.6282 -0.00280762 28.5717V27.2096C-0.00262132 27.0962 0.0425688 26.9874 0.122859 26.9073C0.203149 26.8271 0.311966 26.7821 0.42542 26.7821H5.87228C5.92993 26.7798 5.98746 26.7891 6.04141 26.8095C6.09537 26.83 6.14462 26.8611 6.18624 26.9011C6.22786 26.9411 6.261 26.989 6.28362 27.0421C6.30623 27.0952 6.31788 27.1523 6.31788 27.21C6.31788 27.2677 6.30623 27.3248 6.28362 27.3779C6.261 27.4309 6.22786 27.4789 6.18624 27.5189C6.14462 27.5588 6.09537 27.59 6.04141 27.6104C5.98746 27.6309 5.92993 27.6402 5.87228 27.6379H0.852962V28.5717C0.852965 28.6847 0.808323 28.7931 0.728771 28.8733C0.64922 28.9535 0.541202 28.999 0.428236 28.9999Z" fill="#00FF00"/>
<path d="M26.7561 26.7297C26.6999 26.7297 26.6442 26.7186 26.5922 26.6971C26.5403 26.6756 26.4931 26.6441 26.4533 26.6043C26.4135 26.5645 26.382 26.5173 26.3605 26.4654C26.3389 26.4134 26.3279 26.3577 26.3279 26.3015V24.9148H2.66923V26.3022C2.66923 26.4157 2.62412 26.5247 2.54381 26.605C2.4635 26.6853 2.35458 26.7304 2.24101 26.7304C2.12743 26.7304 2.01848 26.6853 1.93817 26.605C1.85786 26.5247 1.81274 26.4157 1.81274 26.3022V24.4858C1.81274 24.3723 1.85786 24.2634 1.93817 24.183C2.01848 24.1027 2.12743 24.0576 2.24101 24.0576H26.7533C26.8669 24.0576 26.9758 24.1027 27.0561 24.183C27.1364 24.2634 27.1815 24.3723 27.1815 24.4858V26.3015C27.1815 26.4146 27.1368 26.5231 27.0571 26.6033C26.9774 26.6835 26.8692 26.729 26.7561 26.7297Z" fill="#00FF00"/>
<path d="M7.24 23.0989C7.21167 23.0988 7.18339 23.096 7.15561 23.0904C7.04428 23.068 6.9464 23.0024 6.8835 22.9078C6.8206 22.8133 6.79782 22.6976 6.82019 22.5862C6.82511 22.5623 7.30682 20.1406 7.30682 18.1316C7.30682 16.1113 6.82162 12.7796 6.81459 12.7466C6.80196 12.6893 6.80125 12.63 6.81253 12.5724C6.82381 12.5148 6.84682 12.4602 6.88014 12.4119C6.91345 12.3636 6.95636 12.3226 7.00618 12.2916C7.056 12.2606 7.11167 12.2402 7.16972 12.2316C7.22777 12.2231 7.28694 12.2265 7.34359 12.2418C7.40024 12.2571 7.45315 12.284 7.49899 12.3206C7.54484 12.3572 7.58264 12.4029 7.61007 12.4548C7.63749 12.5067 7.65396 12.5636 7.65841 12.6221C7.6788 12.7628 8.15837 16.048 8.15837 18.1316C8.15837 20.2271 7.67527 22.653 7.65488 22.755C7.63532 22.8511 7.58352 22.9375 7.50806 23.0001C7.4326 23.0626 7.33801 23.0975 7.24 23.0989Z" fill="#00FF00"/>
<path d="M7.24002 13.1119H6.78577C6.67528 13.1075 6.57081 13.0604 6.49423 12.9807C6.41764 12.9009 6.37488 12.7946 6.37488 12.6841C6.37488 12.5735 6.41764 12.4672 6.49423 12.3874C6.57081 12.3077 6.67528 12.2606 6.78577 12.2562H7.24002C7.36722 12.2558 7.4891 12.2051 7.57898 12.115C7.66885 12.025 7.71939 11.9031 7.71958 11.7759C7.71958 11.6623 7.76469 11.5534 7.845 11.4731C7.92531 11.3928 8.03426 11.3477 8.14784 11.3477C8.26142 11.3477 8.37033 11.3928 8.45064 11.4731C8.53095 11.5534 8.57607 11.6623 8.57607 11.7759C8.57607 12.1302 8.43531 12.4701 8.18475 12.7206C7.93419 12.9712 7.59436 13.1119 7.24002 13.1119Z" fill="#00FF00"/>
<path d="M8.14504 24.0065C8.0888 24.0065 8.03311 23.9954 7.98116 23.9739C7.9292 23.9524 7.88197 23.9208 7.8422 23.8811C7.80244 23.8413 7.77091 23.7941 7.74939 23.7421C7.72787 23.6902 7.71678 23.6345 7.71678 23.5782C7.71659 23.4511 7.66604 23.3292 7.57614 23.2393C7.48624 23.1494 7.36435 23.0988 7.23722 23.0987H6.78296C6.66939 23.0987 6.56047 23.0535 6.48016 22.9732C6.39985 22.8929 6.35474 22.784 6.35474 22.6704C6.35474 22.5569 6.39985 22.4479 6.48016 22.3676C6.56047 22.2873 6.66939 22.2422 6.78296 22.2422H7.24003C7.59437 22.2422 7.93421 22.3829 8.18476 22.6335C8.43532 22.8841 8.57608 23.2239 8.57608 23.5782C8.57608 23.6347 8.56492 23.6906 8.54322 23.7428C8.52152 23.7949 8.48972 23.8423 8.44966 23.8821C8.40959 23.9219 8.36206 23.9533 8.30978 23.9747C8.2575 23.996 8.20151 24.0069 8.14504 24.0065Z" fill="#00FF00"/>
<path d="M3.60596 24.4599C3.54976 24.46 3.4941 24.449 3.44215 24.4276C3.3902 24.4061 3.34297 24.3746 3.3032 24.3349C3.26342 24.2952 3.23188 24.2481 3.21035 24.1962C3.18882 24.1442 3.17773 24.0886 3.17773 24.0324V23.5788C3.17776 23.3121 3.25761 23.0515 3.40699 22.8306C3.55637 22.6097 3.76843 22.4385 4.01592 22.3391C3.87529 21.5403 3.59401 19.7373 3.59401 18.132C3.59401 16.4506 3.90625 13.9832 4.03704 13.0233C3.78515 12.9263 3.56854 12.7552 3.41578 12.5327C3.26302 12.3101 3.18124 12.0465 3.18124 11.7766V11.323C3.1789 11.2654 3.18825 11.2079 3.2087 11.1539C3.22915 11.0999 3.26028 11.0507 3.30024 11.0091C3.34021 10.9674 3.38818 10.9343 3.44126 10.9117C3.49434 10.8891 3.55146 10.8774 3.60916 10.8774C3.66685 10.8774 3.72394 10.8891 3.77702 10.9117C3.8301 10.9343 3.87807 10.9674 3.91803 11.0091C3.958 11.0507 3.98912 11.0999 4.00957 11.1539C4.03002 11.2079 4.03938 11.2654 4.03704 11.323V11.7766C4.03723 11.9039 4.08789 12.026 4.17792 12.116C4.26795 12.206 4.38997 12.2567 4.51729 12.2569C4.57884 12.257 4.63965 12.2704 4.69555 12.2961C4.75146 12.3219 4.80114 12.3594 4.8412 12.4062C4.88126 12.4529 4.91078 12.5077 4.92769 12.5669C4.94461 12.6261 4.94851 12.6882 4.9392 12.7491C4.93427 12.7821 4.44697 16.1138 4.44697 18.1341C4.44697 20.1431 4.92868 22.5641 4.9336 22.5887C4.94613 22.6511 4.9446 22.7154 4.92917 22.7771C4.91374 22.8387 4.88479 22.8962 4.8444 22.9453C4.804 22.9944 4.75317 23.0338 4.69562 23.0608C4.63807 23.0878 4.57526 23.1017 4.51169 23.1014C4.38443 23.1014 4.26237 23.1519 4.17232 23.2418C4.08227 23.3317 4.0316 23.4537 4.03141 23.5809V24.0352C4.03067 24.1477 3.98559 24.2554 3.90595 24.335C3.82631 24.4145 3.7185 24.4594 3.60596 24.4599Z" fill="#00FF00"/>
<path d="M24.487 23.0989C24.4584 23.0988 24.4299 23.096 24.4019 23.0904C24.2906 23.0679 24.1929 23.0021 24.13 22.9076C24.0671 22.8131 24.0443 22.6976 24.0664 22.5862C24.0714 22.5623 24.5538 20.1406 24.5538 18.1316C24.5538 16.1113 24.0679 12.7796 24.0615 12.7466C24.0489 12.6893 24.0482 12.63 24.0595 12.5724C24.0708 12.5148 24.0938 12.4602 24.1271 12.4119C24.1604 12.3636 24.2033 12.3226 24.2531 12.2916C24.3029 12.2606 24.3586 12.2402 24.4167 12.2316C24.4747 12.2231 24.5339 12.2265 24.5905 12.2418C24.6472 12.2571 24.7001 12.284 24.7459 12.3206C24.7918 12.3572 24.8296 12.4029 24.857 12.4548C24.8844 12.5067 24.9009 12.5636 24.9054 12.6221C24.9257 12.7628 25.4053 16.048 25.4053 18.1316C25.4053 20.2271 24.9222 22.653 24.9018 22.755C24.8825 22.8512 24.8308 22.9378 24.7552 23.0004C24.6797 23.063 24.585 23.0977 24.487 23.0989Z" fill="#00FF00"/>
<path d="M24.4863 13.1122H24.0328C23.9751 13.1145 23.9176 13.1052 23.8636 13.0848C23.8097 13.0643 23.7604 13.0332 23.7188 12.9932C23.6772 12.9532 23.6441 12.9053 23.6215 12.8522C23.5988 12.7991 23.5872 12.742 23.5872 12.6843C23.5872 12.6266 23.5988 12.5695 23.6215 12.5164C23.6441 12.4634 23.6772 12.4154 23.7188 12.3754C23.7604 12.3355 23.8097 12.3043 23.8636 12.2839C23.9176 12.2634 23.9751 12.2541 24.0328 12.2564H24.4863C24.6136 12.2561 24.7355 12.2053 24.8255 12.1154C24.9155 12.0254 24.9662 11.9034 24.9666 11.7762C24.9642 11.7185 24.9736 11.661 24.994 11.607C25.0145 11.5531 25.0456 11.5038 25.0856 11.4622C25.1255 11.4206 25.1735 11.3875 25.2266 11.3649C25.2797 11.3422 25.3368 11.3306 25.3945 11.3306C25.4522 11.3306 25.5093 11.3422 25.5624 11.3649C25.6154 11.3875 25.6634 11.4206 25.7034 11.4622C25.7433 11.5038 25.7745 11.5531 25.7949 11.607C25.8154 11.661 25.8247 11.7185 25.8223 11.7762C25.8223 12.1305 25.6816 12.4703 25.431 12.7209C25.1805 12.9714 24.8406 13.1122 24.4863 13.1122Z" fill="#00FF00"/>
<path d="M25.3941 24.0065C25.2806 24.0063 25.1719 23.9611 25.0917 23.8808C25.0116 23.8005 24.9665 23.6917 24.9665 23.5782C24.9662 23.451 24.9154 23.3292 24.8254 23.2393C24.7354 23.1494 24.6135 23.0988 24.4863 23.0987H24.0327C23.9191 23.0987 23.8102 23.0535 23.7299 22.9732C23.6496 22.8929 23.6045 22.784 23.6045 22.6704C23.6045 22.5569 23.6496 22.4479 23.7299 22.3676C23.8102 22.2873 23.9191 22.2422 24.0327 22.2422H24.4863C24.8406 22.2422 25.1804 22.3829 25.431 22.6335C25.6815 22.8841 25.8223 23.2239 25.8223 23.5782C25.8223 23.6345 25.8112 23.6902 25.7897 23.7421C25.7682 23.7941 25.7366 23.8413 25.6969 23.8811C25.6571 23.9208 25.6099 23.9524 25.558 23.9739C25.506 23.9954 25.4503 24.0065 25.3941 24.0065Z" fill="#00FF00"/>
<path d="M20.855 24.4601C20.7416 24.4601 20.6327 24.4151 20.5525 24.3349C20.4722 24.2548 20.4269 24.146 20.4268 24.0326V23.579C20.4268 23.3123 20.5068 23.0516 20.6563 22.8307C20.8058 22.6097 21.018 22.4386 21.2657 22.3393C21.125 21.5405 20.8395 19.7376 20.8395 18.1322C20.8395 16.4509 21.1517 13.9834 21.2832 13.0236C21.0312 12.9266 20.8145 12.7556 20.6616 12.5331C20.5087 12.3105 20.4268 12.0468 20.4268 11.7768V11.3233C20.4268 11.2097 20.4719 11.1008 20.5522 11.0204C20.6325 10.9401 20.7414 10.895 20.855 10.895C20.9686 10.895 21.0775 10.9401 21.1578 11.0204C21.2381 11.1008 21.2832 11.2097 21.2832 11.3233V11.7768C21.2834 11.904 21.334 12.026 21.4239 12.116C21.5138 12.206 21.6356 12.2567 21.7628 12.2571C21.8244 12.2571 21.8853 12.2704 21.9412 12.2961C21.9972 12.3218 22.0469 12.3594 22.087 12.4061C22.1271 12.4529 22.1566 12.5078 22.1734 12.567C22.1903 12.6263 22.1941 12.6884 22.1847 12.7493C22.1798 12.7824 21.6925 16.114 21.6925 18.1343C21.6925 20.1433 22.1749 22.5643 22.1798 22.589C22.1923 22.6513 22.1908 22.7156 22.1754 22.7773C22.16 22.8389 22.131 22.8964 22.0906 22.9455C22.0502 22.9946 21.9994 23.034 21.9419 23.061C21.8843 23.088 21.8215 23.1019 21.7579 23.1016C21.6308 23.1018 21.5089 23.1523 21.419 23.2422C21.3291 23.3321 21.2785 23.454 21.2783 23.5812V24.0354C21.2774 24.1475 21.2326 24.2548 21.1534 24.3342C21.0743 24.4136 20.9671 24.4588 20.855 24.4601Z" fill="#00FF00"/>
<path d="M27.2104 11.2965H1.79033C1.67688 11.2963 1.56814 11.2511 1.48798 11.1708C1.40782 11.0905 1.36279 10.9817 1.36279 10.8682V8.14478C1.36272 8.07133 1.38159 7.9991 1.41756 7.93505C1.45352 7.871 1.50536 7.81731 1.56812 7.77913L14.2782 0.0616917C14.3453 0.02133 14.4221 0 14.5004 0C14.5787 0 14.6555 0.02133 14.7226 0.0616917L27.4326 7.77913C27.4956 7.81717 27.5476 7.87082 27.5837 7.93489C27.6198 7.99895 27.6387 8.07125 27.6387 8.14478V10.8682C27.6387 10.9818 27.5935 11.0907 27.5132 11.171C27.4329 11.2513 27.324 11.2965 27.2104 11.2965ZM2.21856 10.44H26.7829V8.38528L14.5004 0.93153L2.21856 8.38528V10.44Z" fill="#00FF00"/>
<path d="M14.4996 6.75646C14.1457 6.75632 13.7998 6.65124 13.5055 6.45451C13.2113 6.25778 12.9821 5.97824 12.8467 5.65122C12.7114 5.3242 12.676 4.96439 12.7452 4.61729C12.8143 4.27019 12.9848 3.95137 13.2351 3.70116C13.4854 3.45095 13.8043 3.28058 14.1514 3.21158C14.4986 3.14259 14.8584 3.17807 15.1853 3.31354C15.5123 3.44901 15.7917 3.67839 15.9884 3.97267C16.185 4.26696 16.2899 4.61293 16.2899 4.96685C16.2894 5.44143 16.1005 5.89641 15.7649 6.23193C15.4292 6.56744 14.9742 6.75608 14.4996 6.75646ZM14.4996 4.03303C14.3149 4.03303 14.1343 4.08779 13.9808 4.1904C13.8272 4.29301 13.7075 4.43885 13.6368 4.60949C13.5662 4.78012 13.5477 4.96789 13.5837 5.14903C13.6198 5.33018 13.7087 5.49657 13.8393 5.62716C13.9699 5.75776 14.1363 5.84671 14.3174 5.88274C14.4986 5.91877 14.6863 5.90028 14.857 5.8296C15.0276 5.75892 15.1734 5.63923 15.276 5.48566C15.3787 5.33209 15.4334 5.15154 15.4334 4.96685C15.4336 4.84403 15.4096 4.72238 15.3628 4.60884C15.3159 4.4953 15.2472 4.39211 15.1605 4.30513C15.0738 4.21816 14.9708 4.14911 14.8574 4.10194C14.744 4.05477 14.6224 4.03039 14.4996 4.03021V4.03303Z" fill="#00FF00"/>
<path d="M24.0327 9.02654H4.96733C4.90968 9.02888 4.85215 9.01954 4.79819 8.99909C4.74424 8.97864 4.69499 8.9475 4.65337 8.90753C4.61175 8.86757 4.57861 8.81961 4.55599 8.76653C4.53338 8.71345 4.52173 8.65634 4.52173 8.59865C4.52173 8.54095 4.53338 8.48385 4.55599 8.43077C4.57861 8.37769 4.61175 8.32973 4.65337 8.28977C4.69499 8.2498 4.74424 8.21866 4.79819 8.19821C4.85215 8.17776 4.90968 8.16842 4.96733 8.17076H24.0327C24.1432 8.17524 24.2477 8.22228 24.3243 8.30203C24.4009 8.38179 24.4436 8.48807 24.4436 8.59865C24.4436 8.70922 24.4009 8.81551 24.3243 8.89526C24.2477 8.97501 24.1432 9.02206 24.0327 9.02654Z" fill="#00FF00"/>
</g>
<defs>
<clipPath id="clip0_130_203">
<rect width="29" height="29" fill="white"/>
</clipPath>
</defs>
</svg>
