<svg width="38" height="41" viewBox="0 0 38 41" fill="none" xmlns="http://www.w3.org/2000/svg">
<g clip-path="url(#clip0_135_95)">
<path d="M18.473 40.9998C18.2754 40.9998 -1.58024e-05 40.4723 -1.58024e-05 22.6862C-1.58024e-05 22.3289 -0.323373 13.0955 13.5629 0.164258C13.6745 0.0620332 13.8237 0.00488281 13.979 0.00488281C14.1343 0.00488281 14.2835 0.0620332 14.3952 0.164258L23.1796 8.21792L25.7724 4.81496C25.8639 4.69429 26.0017 4.61243 26.1563 4.58697C26.3108 4.56152 26.4697 4.59451 26.5988 4.67885C28.6953 6.14254 30.6026 7.83487 32.2814 9.72091C36.012 13.8952 37.988 18.3758 37.988 22.6862C37.988 22.9754 38.3353 30.5527 32.9461 35.918C29.5629 39.2926 24.6886 40.9998 18.473 40.9998ZM13.988 1.36096C0.95208 13.691 1.19759 22.5727 1.19759 22.6635C1.19759 39.3493 17.7784 39.8541 18.485 39.8655C24.3533 39.8655 28.9281 38.2774 32.0778 35.141C37.1197 30.1216 36.7964 22.7883 36.7904 22.7145C36.7904 14.0824 28.479 7.46928 26.3892 5.94362L23.7485 9.40896C23.6983 9.47465 23.6339 9.5294 23.5595 9.56951C23.4852 9.60962 23.4026 9.63417 23.3174 9.6415C23.2311 9.64902 23.1441 9.63871 23.0624 9.61129C22.9807 9.58388 22.9063 9.54001 22.8443 9.48269L13.988 1.36096Z" fill="white"/>
<path d="M18.7425 33.3433C18.6407 33.3433 9.46108 33.0824 9.46108 24.1553C9.46108 23.9908 9.29342 19.3798 16.1377 13.0049C16.2497 12.901 16.4001 12.8428 16.5569 12.8428C16.7136 12.8428 16.8641 12.901 16.9761 13.0049L20.988 16.6858L22.0419 15.3076C22.1334 15.1869 22.2712 15.105 22.4257 15.0796C22.5802 15.0541 22.7391 15.0871 22.8683 15.1715C23.0958 15.3246 28.5329 18.9658 28.5329 24.1609C28.5329 24.2914 28.7066 28.097 26 30.791C24.2934 32.4869 21.8503 33.3433 18.7425 33.3433ZM16.5689 14.2016C10.521 20.015 10.6527 24.0872 10.6587 24.1269C10.6587 31.9537 18.4431 32.2033 18.7545 32.209C21.509 32.209 23.6587 31.4716 25.1317 30.0027C27.491 27.6546 27.3353 24.2177 27.3353 24.1836C27.3353 20.395 23.9162 17.4174 22.6467 16.4362L21.5569 17.8711C21.5069 17.9377 21.4424 17.9933 21.3677 18.034C21.293 18.0748 21.2099 18.0998 21.124 18.1074C21.0382 18.1149 20.9516 18.1048 20.8703 18.0777C20.7889 18.0507 20.7147 18.0073 20.6527 17.9505L16.5689 14.2016Z" fill="white"/>
</g>
<defs>
<clipPath id="clip0_135_95">
<rect width="38" height="41" fill="white"/>
</clipPath>
</defs>
</svg>
