<svg width="24" height="26" viewBox="0 0 24 26" fill="none" xmlns="http://www.w3.org/2000/svg">
<g clip-path="url(#clip0_130_200)">
<path d="M11.6672 26.0002C11.5424 26.0002 3.82051e-05 25.6657 3.82051e-05 14.3867C3.82051e-05 14.1601 -0.204187 8.30479 8.56606 0.104485C8.63658 0.0396597 8.73083 0.00341797 8.82891 0.00341797C8.92699 0.00341797 9.02123 0.0396597 9.09175 0.104485L14.6398 5.21169L16.2774 3.05371C16.3352 2.97719 16.4222 2.92528 16.5198 2.90913C16.6174 2.89299 16.7177 2.91392 16.7993 2.9674C18.1234 3.89559 19.328 4.96878 20.3883 6.1648C22.7444 8.81192 23.9925 11.6532 23.9925 14.3867C23.9925 14.5701 24.2118 19.3752 20.8081 22.7776C18.6713 24.9176 15.5929 26.0002 11.6672 26.0002ZM8.83458 0.863368C0.601362 8.68243 0.75642 14.3147 0.75642 14.3723C0.75642 24.9536 11.2285 25.2737 11.6748 25.2809C15.3811 25.2809 18.2704 24.2738 20.2597 22.2849C23.4441 19.1019 23.2399 14.4514 23.2361 14.4047C23.2361 8.9306 17.9868 4.73694 16.6669 3.76945L14.9991 5.96698C14.9674 6.00864 14.9267 6.04336 14.8798 6.06879C14.8328 6.09423 14.7806 6.1098 14.7268 6.11444C14.6723 6.11921 14.6174 6.11268 14.5658 6.09529C14.5142 6.0779 14.4672 6.05008 14.428 6.01374L8.83458 0.863368Z" fill="#00FF00"/>
<path d="M11.8374 21.1444C11.7731 21.1444 5.97545 20.9789 5.97545 15.3178C5.97545 15.2135 5.86956 12.2895 10.1923 8.24686C10.263 8.18096 10.358 8.14404 10.457 8.14404C10.556 8.14404 10.6511 8.18096 10.7217 8.24686L13.2556 10.5811L13.9212 9.70708C13.979 9.63056 14.0661 9.57865 14.1636 9.56251C14.2612 9.54637 14.3616 9.56729 14.4431 9.62077C14.5869 9.71788 18.0208 12.0269 18.0208 15.3214C18.0208 15.4041 18.1305 17.8175 16.4211 19.5259C15.3432 20.6013 13.8002 21.1444 11.8374 21.1444ZM10.4646 9.00575C6.64485 12.6923 6.72805 15.2747 6.73183 15.2998C6.73183 20.2632 11.6483 20.4214 11.845 20.425C13.5847 20.425 14.9424 19.9575 15.8727 19.0259C17.3628 17.5369 17.2644 15.3574 17.2644 15.3358C17.2644 12.9333 15.105 11.045 14.3032 10.4228L13.6149 11.3328C13.5834 11.375 13.5426 11.4102 13.4954 11.4361C13.4482 11.4619 13.3957 11.4778 13.3415 11.4826C13.2873 11.4874 13.2326 11.4809 13.1813 11.4638C13.1299 11.4466 13.083 11.4191 13.0438 11.3831L10.4646 9.00575Z" fill="#00FF00"/>
</g>
<defs>
<clipPath id="clip0_130_200">
<rect width="24" height="26" fill="white"/>
</clipPath>
</defs>
</svg>
